<svg width="192" height="192" enable-background="new 0 0 200 200" version="1.1" viewBox="0 0 192 192" xml:space="preserve" xmlns="http://www.w3.org/2000/svg"><g transform="rotate(0 3.14 2.18) translate(12.785696696838428 12.785696696838428) scale(0.8331845136737078)"><path d="m175.6 130.7c5.708-4.556 9.38-11.61 9.38-19.54 0-6.504-2.471-12.42-6.501-16.85 0.131-0.05 0.271-0.082 0.4-0.139 1.66-0.713 3.038-1.891 3.897-3.313 0.845-1.424 1.218-3.066 0.839-4.58-2.523 1.423-4.52 1.516-5.991 1.262 0.369-1.649 0.572-3.366 0.572-5.135 0-10.66-6.965-19.57-16.32-21.9 1.096-2.897 0.811-5.71-1.256-8.423-0.981 1.873-2.078 3.269-3.401 4.211-1.532-7.861-8.007-14.24-16.53-16.6-3.521-9.75-12.86-16.72-23.82-16.72-6.2 0-11.88 2.228-16.28 5.926-4.403-3.698-10.08-5.926-16.28-5.926-10.96 0-20.3 6.968-23.82 16.72-8.439 2.332-14.86 8.617-16.48 16.38l-4.695-0.877c0.081 1.912 0.478 3.567 1.226 5.063-9.964 1.825-17.56 11.02-17.56 22.15 0 3.453 0.753 6.712 2.058 9.638-5.402 4.564-8.841 11.43-8.841 19.12 0 6.773 2.682 12.9 7.016 17.39-2.285 0.841-5.004 1.086-8.243 0.878 2.23 4.879 6.301 7.304 11.77 7.896-0.872 2.401-1.358 5.008-1.358 7.736 0 10.44 6.993 19.13 16.26 21.09l-4.695 8.704s23.58 9.291 36.92-11.21c-9.852-9.527-16.7-25.22-16.7-47.15 0-14.52 3.081-26.34 8.076-35.44-2e-3 -0.036-2e-3 -0.073-5e-3 -0.109 0.022 2e-3 0.044 1e-3 0.067 3e-3 8.278-15 21.78-22.58 35.28-22.66 13.5 0.074 27 7.658 35.28 22.66 0.021-2e-3 0.043-1e-3 0.065-3e-3 -2e-3 0.036-2e-3 0.073-6e-3 0.109 4.996 9.102 8.076 20.92 8.076 35.44 0 21.93-6.852 37.63-16.7 47.15 13.34 20.5 36.92 11.21 36.92 11.21l-4.695-8.704c9.272-1.954 16.27-10.65 16.27-21.09 0-2.761-0.495-5.398-1.387-7.823l5.91-2.921c-1.5-1.9-3-3-4.8-3.8z"></path><g fill="#414042"><path d="m162.4 100c-0.924 1.14-1.855 2.355-2.272 3.564-0.097 0.294-0.121 0.583-0.089 0.771 0.041 0.192 0.112 0.256 0.241 0.347 0.277 0.192 0.896 0.318 1.522 0.373 1.441 0.107 2.9 0.191 4.397 0.401 0.751 0.099 1.514 0.207 2.304 0.419 0.798 0.24 1.62 0.402 2.621 1.274 0.243 0.229 0.501 0.549 0.675 0.963 0.183 0.411 0.233 0.901 0.183 1.309-0.115 0.824-0.456 1.317-0.746 1.726-0.151 0.204-0.308 0.384-0.462 0.55l-0.353 0.376c-0.131 0.163-0.284 0.353-0.418 0.602-0.568 0.92-0.776 2.138-0.645 3.312 0.058 0.594 0.223 1.178 0.491 1.711 0.242 0.55 0.604 1.054 1.073 1.466 0.91 0.883 2.285 1.328 3.776 1.492-1.389 0.55-3.107 0.596-4.646-0.175-1.539-0.764-2.679-2.292-3.135-3.971-0.486-1.676-0.358-3.545 0.433-5.222 0.193-0.405 0.461-0.818 0.78-1.23l0.379-0.442c0.092-0.103 0.175-0.204 0.238-0.294 0.139-0.177 0.176-0.343 0.148-0.25-0.046 0.114 0.12 0.389 0.081 0.308-0.092-0.122-0.714-0.422-1.304-0.599-0.617-0.188-1.292-0.369-1.979-0.532-1.384-0.31-2.826-0.612-4.267-1-0.794-0.201-1.677-0.451-2.464-1.296-0.389-0.43-0.599-1.103-0.537-1.642 0.044-0.548 0.265-0.968 0.482-1.331 1-1.6 2.2-2.5 3.5-3.2z"></path><path d="m137 48.06c-0.373 1.431-0.728 2.844-0.796 4.199-0.044 0.664-0.014 1.324 0.171 1.812 0.199 0.492 0.416 0.721 0.784 0.841 0.838 0.269 2.204 0.218 3.526-0.035 0.68-0.118 1.386-0.236 2.165-0.344 0.393-0.049 0.802-0.084 1.273-0.082 0.471 0.017 1.02 0.03 1.728 0.362 0.35 0.172 0.724 0.471 0.983 0.846 0.259 0.374 0.388 0.774 0.448 1.113 0.109 0.683 0.028 1.188-0.057 1.646-0.107 0.484-0.214 0.795-0.317 1.157-0.11 0.361-0.21 0.71-0.332 1.057-0.463 1.361-0.982 2.789-1.118 3.801-0.049 0.501 0.021 0.781 0.339 1.211 0.158 0.205 0.378 0.418 0.634 0.606 0.188 0.149 0.444 0.293 0.704 0.384 1.064 0.428 2.531 0.022 3.8-0.701-0.819 1.205-2.219 2.285-4.072 2.204-0.454-0.033-0.882-0.147-1.33-0.344-0.378-0.165-0.754-0.372-1.127-0.66-0.771-0.533-1.341-1.687-1.372-2.642-0.079-0.961 0.067-1.76 0.224-2.508l0.489-2.158 0.251-1.036c0.082-0.338 0.18-0.723 0.213-0.95 0.047-0.25 0.046-0.479 0.031-0.512-0.048-0.048 0.13 0.257 0.215 0.262 0.053 0.014-0.14-0.049-0.389-0.049-0.253-0.01-0.566 0.015-0.894 0.04-0.661 0.049-1.387 0.161-2.145 0.211-0.76 0.053-1.557 0.084-2.395 0.016-0.857-0.08-1.685-0.222-2.619-0.766-0.951-0.531-1.577-1.658-1.632-2.583-0.088-0.94 0.092-1.752 0.331-2.502 0.5-1.49 1.3-2.79 2.3-3.91z"></path><path d="m44.38 66.45c-2.257 1.4-3.919 3.35-4.37 5.474-0.216 1.106-0.246 2.089 0.128 3.034 0.338 0.967 0.96 1.9 1.684 3.072 0.331 0.614 0.779 1.256 0.938 2.408 0.066 0.571-0.062 1.29-0.372 1.82-0.303 0.539-0.685 0.9-1.049 1.166-0.366 0.268-0.723 0.458-1.071 0.624l-0.826 0.392c-0.495 0.265-1.002 0.551-1.462 0.875-0.901 0.663-1.714 1.47-2.123 2.478-0.454 0.987-0.377 2.234 0.439 3.327-0.614-0.271-1.167-0.771-1.516-1.432-0.361-0.659-0.473-1.454-0.414-2.219 0.157-1.546 0.982-2.923 2.007-3.97 0.507-0.542 1.068-1.002 1.686-1.404 0.335-0.223 0.595-0.375 0.879-0.546 0.224-0.14 0.425-0.288 0.565-0.424 0.14-0.139 0.224-0.25 0.226-0.287 4e-3 -0.039-0.01 0.011-0.02-0.062-7e-3 -0.147-0.244-0.657-0.557-1.156-0.614-1.041-1.453-2.3-1.833-3.846-0.395-1.552-0.22-3.276 0.402-4.621 0.58-1.412 1.612-2.58 2.79-3.374 1.18-0.76 2.5-1.25 3.85-1.32z"></path><path d="m130.6 40.3c-2.062-0.668-4.007-1.217-5.952-1.598-1.938-0.384-3.852-0.59-5.75-0.563-1.899 0.028-3.782 0.286-5.674 0.779-1.903 0.478-3.778 1.224-5.808 2.015 2.427-3.604 6.886-5.871 11.44-5.9 2.269-0.03 4.517 0.458 6.54 1.352 2.2 0.91 4.1 2.16 5.4 3.91z"></path><path d="m70.62 40.3c1.336-1.745 3.197-3 5.206-3.916 2.022-0.894 4.27-1.382 6.539-1.352 4.553 0.03 9.012 2.296 11.44 5.9-2.031-0.791-3.906-1.537-5.809-2.015-1.893-0.493-3.775-0.75-5.673-0.779-1.898-0.026-3.812 0.179-5.75 0.563-1.95 0.38-3.9 0.93-5.96 1.6z"></path><path d="m37.39 137.1c-0.155 2.215-0.155 4.278 0.041 6.297 0.19 2.009 0.577 3.939 1.262 5.705 0.686 1.766 1.674 3.352 3.043 4.71 1.362 1.377 3.106 2.471 5.059 3.547-2.222 0.198-4.543-0.354-6.562-1.619-2.015-1.267-3.597-3.289-4.438-5.516-0.86-2.229-1.07-4.614-0.798-6.875 0.3-2.2 1.02-4.5 2.4-6.2z"></path><path d="m163.8 137.1c1.378 1.779 2.095 3.996 2.396 6.249 0.271 2.26 0.061 4.646-0.8 6.875-0.841 2.227-2.423 4.248-4.438 5.515-2.017 1.266-4.34 1.817-6.562 1.62 1.953-1.076 3.696-2.17 5.06-3.548 1.369-1.357 2.359-2.944 3.042-4.709 0.686-1.766 1.071-3.696 1.262-5.705 0.2-2.1 0.2-4.1 0-6.3z"></path><path d="m28.56 120.2c1.39-0.279 2.567-0.44 3.631-0.733 1.054-0.289 1.91-0.68 2.574-1.223 0.666-0.535 1.217-1.234 1.642-2.187 0.436-0.945 0.718-2.079 0.977-3.455 0.984 1.009 1.481 2.441 1.417 3.945-0.051 1.498-0.795 3.107-2.098 4.126-1.289 1.041-2.951 1.381-4.378 1.227-1.43 0-2.74-0.6-3.76-1.6z"></path></g></g></svg>