<svg viewBox="0 0 192 192" xmlns="http://www.w3.org/2000/svg" width="192" height="192"><g transform="rotate(0 3.14 2.18) translate(14.878491778460656 36.44243700190782) scale(1.1735480393712745)"><defs><style>.cls-1{fill:#fff;}.cls-2{fill:url(#i);}.cls-3{fill:url(#h);}.cls-4{fill:url(#g);}.cls-5{fill:#cb9932;}.cls-6{fill:url(#f);}.cls-7{fill:#ccb65e;}.cls-8{fill:#79461d;}.cls-9{fill:url(#e);}.cls-10{fill:#fbf49c;}.cls-11{fill:#cb3827;}.cls-12{fill:#a5923d;}.cls-13{fill:#991b1e;}.cls-14{fill:#5a0d0d;}.cls-15{fill:#cd6733;}.cls-16{fill:#fefbd9;}.cls-17{fill:#9d8a33;}.cls-18{fill:#8e8040;}.cls-19{fill:#fcf9ce;}.cls-20{fill:none;}.cls-21{fill:url(#d);}.cls-22{fill:url(#c);}.cls-23{fill:#fcf7be;}.cls-24{fill:#fcf9d1;}.cls-25{fill:url(#b);}.cls-26{fill:url(#a);}</style><linearGradient id="i" x1="-402.5" x2="-403.9" y1="-409.7" y2="-328.1" gradientTransform="matrix(1 0 0 -1 472 -310.4)" gradientUnits="userSpaceOnUse"><stop stop-color="#c2af57" offset=".01"></stop><stop stop-color="#b07e32" offset=".39"></stop><stop stop-color="#daa827" offset=".52"></stop><stop stop-color="#f6eb16" offset=".66"></stop><stop stop-color="#f6eb16" offset=".74"></stop><stop stop-color="#cb9932" offset=".84"></stop></linearGradient><linearGradient id="h" x1="-516.6" x2="-436.3" y1="-525.2" y2="-525.2" gradientTransform="matrix(1 0 0 -1 545.4 -437.3)" gradientUnits="userSpaceOnUse"><stop stop-color="#e7cc1d" offset="0"></stop><stop stop-color="#e9d21e" offset=".15"></stop><stop stop-color="#e9d21e" offset=".81"></stop><stop stop-color="#e1bf23" offset="1"></stop></linearGradient><linearGradient id="g" x1="-522.7" x2="-519.7" y1="-416.2" y2="-415.9" gradientTransform="matrix(.88 0 0 -1 563.3 -328.9)" gradientUnits="userSpaceOnUse"><stop stop-color="#cb9932" offset=".09"></stop><stop stop-color="#e3c67b" offset=".91"></stop></linearGradient><linearGradient id="f" x1="-516.5" x2="-436.5" y1="-516.1" y2="-516.1" gradientTransform="matrix(1 0 0 -1 545.4 -437.3)" gradientUnits="userSpaceOnUse"><stop stop-color="#ddd29d" offset="0"></stop><stop stop-color="#e7dba9" offset=".22"></stop><stop stop-color="#ede0ae" offset=".5"></stop><stop stop-color="#e7dba9" offset=".77"></stop><stop stop-color="#ddd29d" offset="1"></stop></linearGradient><linearGradient id="e" x1="-492" x2="-492" y1="-449.4" y2="-402.7" gradientTransform="matrix(1 0 0 -1 560.9 -369.3)" gradientUnits="userSpaceOnUse"><stop stop-color="#cb9932" offset=".01"></stop><stop stop-color="#e8d046" offset=".3"></stop><stop stop-color="#f9ef60" offset=".68"></stop><stop stop-color="#ccaf61" offset=".99"></stop></linearGradient><linearGradient id="d" x1="-450.4" x2="-461.9" y1="-295.5" y2="-296.7" gradientTransform="matrix(1 0 0 -1 545.4 -206.9)" gradientUnits="userSpaceOnUse"><stop stop-color="#e9d21e" offset=".18"></stop><stop stop-color="#cb9932" offset=".82"></stop></linearGradient><linearGradient id="c" x1="-505.3" x2="-490.6" y1="-296.2" y2="-296.7" gradientTransform="matrix(1 0 0 -1 545.4 -206.9)" gradientUnits="userSpaceOnUse"><stop stop-color="#e9d21e" offset=".2"></stop><stop stop-color="#cb9932" offset=".8"></stop></linearGradient><linearGradient id="b" x1="-572.5" x2="-580" y1="-432.9" y2="-416.2" gradientTransform="matrix(1 0 0 -1 682.5 -365.8)" gradientUnits="userSpaceOnUse"><stop stop-color="#fcf9ce" offset=".07"></stop><stop stop-color="#ffcd05" offset=".53"></stop><stop stop-color="#fcf9ce" offset=".93"></stop></linearGradient><linearGradient id="a" x1="-437.4" x2="-429.2" y1="-434.6" y2="-419.3" gradientTransform="matrix(1 0 0 -1 465.3 -368)" gradientUnits="userSpaceOnUse"><stop stop-color="#fcf9ce" offset=".04"></stop><stop stop-color="#ffcd05" offset=".53"></stop><stop stop-color="#fcf9ce" offset=".96"></stop></linearGradient></defs><g data-name="Layer 1"><path class="cls-1" d="m55.46 44.26a49 49 0 0 1 6.88-1.66v-1.86a41.29 41.29 0 0 0-6.88 3.52z"></path><path class="cls-2" d="M28.81,92S33,99.36,67.86,99.36s41.28-7.18,41.28-7.18l-.2-15.62a1.44,1.44,0,0,0-.5,0l-.27-5.65s3.94.13,3.91-2.44S107.24,52.26,102.43,48c-2.05-1.19-4.43.26-4.43.26A36.91,36.91,0,0,0,73.25,33.7C72.74,31.39,70.2,17.82,69,17.77s-3.53,13.08-4.27,15.67c-4.86,1.24-16.94,4.06-25.09,14.91-3.56-1.7-4.32-1-5.68,1.12S27.08,63.39,26.08,66,26,70.82,29.51,71c-.07,3.18-.05,5.63-.16,5.57a.7.7,0,0,0-.48,0q0,7.73-.07,15.46Z"></path><path class="cls-3" d="M67.86,81.15c-35.36.46-38.74-3.27-39-4.33L28.82,92S33,99.35,67.87,99.35s41.27-7.18,41.27-7.18l-.2-15.62c-.64,1,.05,4.06-41.08,4.59Z"></path><path class="cls-4" d="m104.1 84.81c0.72 0 1.31 1.1 1.31 2.46s-0.59 2.46-1.31 2.46-1.31-1.1-1.31-2.46 0.59-2.46 1.31-2.46z"></path><path class="cls-5" d="M33.76,84.64c.75,0,1.36,1.1,1.36,2.46s-.61,2.46-1.36,2.46-1.38-1.1-1.38-2.46.61-2.46,1.36-2.46Z"></path><path class="cls-6" d="M108.44,76.56s.54,3-39.3,3.56-39.75-3.73-39.75-3.73,0,.15,0,.14a.7.7,0,0,0-.48,0v.28c.25,1.06,3.63,4.79,39,4.33,41.13-.53,40.44-3.56,41.08-4.59a1.45,1.45,0,0,0-.5,0Z"></path><polygon class="cls-7" points="63.37 80.17 63.35 33.79 62.73 33.95 62.69 80.2 63.37 80.17"></polygon><polygon class="cls-7" points="74.51 33.9 74.45 80.04 75.25 80.02 75.4 34.07 74.51 33.9"></polygon><path class="cls-8" d="M77.06,78.46c-2.28-1.73-1.34-44.32-1.34-44.32l-.31-.06-.14,46c3.45-.07,6.55-.17,9.32-.28-4.66-.26-5.25.45-7.52-1.28Z"></path><path class="cls-8" d="M62.43,34c-.34.24.53,43.82-1.24,44.9s-5.32,1.17-5.32,1.17q3.15.06,6.82.06l0-46.22-.3.08Z"></path><path class="cls-8" d="M29.51,71c1.89-8.37,10.13-22.61,10.13-22.61L38.93,48A103.8,103.8,0,0,0,28.64,70.89a7.38,7.38,0,0,0,.87.08Z"></path><path class="cls-9" d="M63.36,69.11V80.17q2.72,0,5.77,0L74.45,80V61.56l0-17.32V33.91l-1.27-.2c-.64-.09-6.19.19-8.55-.26l-1.37.35V69.11Z"></path><path class="cls-8" d="M98,48.21a72.75,72.75,0,0,1,10.16,22.7,6.75,6.75,0,0,0,.85,0c-.52-7.75-10.33-23-10.33-23a5.07,5.07,0,0,0-.69.33Z"></path><path class="cls-10" d="M72.9,33.43h-8c.93,1.2,2.94,4.43,4,4.43s3.15-3.18,4-4.41Z"></path><path class="cls-11" d="m111.2 68.11s33-24.87 21-65.39c-10.34 10.87-9.89 33.35-29.81 47.28 3.89 4 7.68 13.65 8.82 18.12z"></path><path class="cls-11" d="M6.55,3.3C-6.14,41.38,27.39,68,27.39,68l.12-.33c1-2.64,6.54-14.38,7.89-16.55A10.53,10.53,0,0,1,36.17,50C20.18,41.21,15.67,14.13,6.55,3.3Z"></path><path class="cls-12" d="M64.72,33.44c1.59.75,7.91.5,8.55.26,0-.15-.07-.34-.12-.57-3.37-.78-8.34.05-8.34.05l-.07.26Z"></path><path class="cls-13" d="M110.65,66.14s20.51-18.32,23.7-38.5c.54-4.17,1.48-12.34-2.17-24.93.47,44.68-25.27,54.21-25.27,54.21,1.11,2.47,3.11,7.21,3.73,9.22Z"></path><path class="cls-14" d="M134.36,27.64c-3.2,20.18-23.7,38.5-23.7,38.5.23.73.42,1.39.57,2,0,0,19.82-14.92,23.15-40.47Z"></path><path class="cls-15" d="M110,47.54C125.23,36,132.19,2.71,132.19,2.71,128,7.5,125.87,12.82,124,17.59c-.2,3.5-4,16.81-13.94,30Z"></path><path class="cls-14" d="m104.1 52.11c10.1-5.23 19.2-23.44 19.84-34.52-4.28 10.73-8.64 23.41-21.57 32.41a16.93 16.93 0 0 1 1.73 2.11z"></path><path class="cls-13" d="M31.27,59.35C18.91,48.58,6.13,33.05,6.55,3.3A57,57,0,0,0,3.92,15.66C2.42,41.15,28,66.52,28,66.52c.73-1.71,5.56-5.19,3.28-7.18Z"></path><path class="cls-16" d="M72.94,32.2c-3.33-1.46-7.93.1-7.93.1-.08.34-.15.63-.21.87,0,0,5-.83,8.33-.05Z"></path><path class="cls-14" d="M7.58,4.62c4.84,26.5,15.78,40.58,27.17,47.67.26-.49.48-.88.64-1.14A10.53,10.53,0,0,1,36.17,50C20.79,41.54,16,16.18,7.58,4.62Z"></path><path class="cls-17" d="m68.51 18.31q0.07 6.65 0.15 13.3h0.39l-0.15-13.81a1.2 1.2 0 0 0-0.39 0.51z"></path><path class="cls-18" d="M69.47,18.3l1.47,13.37a7.36,7.36,0,0,1,2,.54c-.75-3.67-2.38-11.78-3.47-13.91Z"></path><path class="cls-18" d="M66.81,31.86,68,19.64c-1,3.2-2.28,9.67-3,12.67a14.83,14.83,0,0,1,1.81-.45Z"></path><circle class="cls-19" cx="104.1" cy="86.05" r=".75"></circle><circle class="cls-19" cx="34.14" cy="86.3" r=".7"></circle><path class="cls-10" d="m87.23 48c10.7 7 20.94 22.89 20.94 22.89a71.7 71.7 0 0 0-8.34-19.79c-3.11 1.78-9.58-2.41-12.6-3.07z"></path><path class="cls-14" d="M21.89,59.6c-7.45-9.27-19-26.58-18-43.94-1.85,19.5,7.68,35,15.15,43.94A64.61,64.61,0,0,0,27.39,68c0-.11.07-.22.12-.33.11-.29.28-.7.49-1.17A91.5,91.5,0,0,1,21.89,59.6Z"></path><path class="cls-8" d="M102.78,87.28c0-1.36.59-2.46,1.31-2.46,0,0-1.34-.05-1.55,1.94-.2,1.82.39,2.67,1.29,2.92a2.61,2.61,0,0,1-1-2.41Z"></path><path class="cls-20" d="M33.76,84.64a2.28,2.28,0,0,1,1.76,2.8c-.3,2.47-1.87,2.13-1.87,2.13"></path><path class="cls-8" d="M34.23,84.8a2.86,2.86,0,0,1,.89,2.33c0,1.36-.61,2.46-1.36,2.46h-.11s1.55.35,1.87-2.13a2.3,2.3,0,0,0-1.29-2.65Z"></path><path class="cls-5" d="M53.67,81.09a61.5,61.5,0,0,0-3.2,17.51c4.72.47,10.49.78,17.39.78s13.8-.39,18.62-.84c-.14-7.6-1.21-13.34-1.53-17.81-4.69.2-10.33.36-17.1.44-5.44.07-10.15,0-14.19-.06Z"></path><path class="cls-21" d="M94.18,80.17c-2.58.2-6.28.41-9.88.57.32,4.47.78,10.29.93,17.89,2.88-.29,6.64-.75,8.85-1.14,0-6.67.17-12.43.09-17.32Z"></path><path class="cls-22" d="M51,98.65a67.78,67.78,0,0,1,3.47-17.54c-4.32-.11-8.71-.33-11.66-.58a69.73,69.73,0,0,0-2.46,16.54A99.41,99.41,0,0,0,51,98.65Z"></path><path class="cls-1" d="M74.5,44.52a38.37,38.37,0,0,0-11.15.21V55.59a39.85,39.85,0,0,0,11.13.25V44.53Z"></path><path class="cls-23" d="M62.35,55.4V44.93c-4.14.89-7.25,2.6-7.38,5.15s3,4.41,7.38,5.32Z"></path><path class="cls-23" d="m75.55 44.68v11c5-0.78 8.86-2.57 8.83-5.44s-3.89-4.76-8.8-5.56z"></path><path class="cls-1" d="M63.35,42.45a43.1,43.1,0,0,1,11.15-.34V40a17.31,17.31,0,0,0-11.15.43v2.07Z"></path><path class="cls-24" d="m75.6 40.33v1.94a24 24 0 0 1 7.9 2.53 38.66 38.66 0 0 0-7.89-4.45z"></path><path class="cls-24" d="m62.35 40.55v1.94a24 24 0 0 0-7.9 2.51 38.85 38.85 0 0 1 7.89-4.45z"></path><path class="cls-1" d="m11.25 27.74s0.26 6.41 8.21 14.79a91.87 91.87 0 0 0-8.21-14.79z"></path><path class="cls-1" d="m108.3 52.84c6.62-6.67 16.84-17 21-29.74-0.11 3.85-3.76 18-21 29.75z"></path><path class="cls-10" d="M29.51,71S42.21,61.1,45.38,50.5c-8.63,4.27-5.73-2.15-5.73-2.15S31.4,62.59,29.51,71Z"></path><path class="cls-8" d="M26.49,69.91c0-.66,6.29-15.83,11.46-22.26l-.56-.16S29,60,26.21,69.58a2.57,2.57,0,0,0,.28.33Z"></path><path class="cls-8" d="M100,47.54s9.34,11.45,10.65,23a3.43,3.43,0,0,0,.39-.19s-1.19-11.1-10.43-22.8a2.88,2.88,0,0,0-.61,0Z"></path><path class="cls-25" d="M110.63,70.5c-1.3-11.52-10.65-23-10.65-23a5.69,5.69,0,0,0-1.28.35s9.8,15.23,10.32,23A5.77,5.77,0,0,0,110.63,70.5Zm-10-23C109.82,59.2,111,70.31,111,70.31a2,2,0,0,0,1.07-1.82,9.53,9.53,0,0,0-.35-1.94c-.15-.58-.34-1.24-.57-2a67.37,67.37,0,0,0-2.67-7,44.14,44.14,0,0,0-3.85-7.07,17,17,0,0,0-1.73-2.12l-.49-.47a3.57,3.57,0,0,0-1.85-.47Z"></path><path class="cls-26" d="M26.21,69.58C29,60,37.39,47.5,37.39,47.5a2.3,2.3,0,0,0-2.63.84A10.58,10.58,0,0,0,34,49.48c-.16.26-.39.64-.64,1.14-.87,1.62-2.2,4.34-3.5,7.06s-2.55,5.47-3.3,7.17c-.21.49-.39.89-.49,1.17l-.12.33a3.55,3.55,0,0,0,.24,3.22Zm2.43,1.3A103.76,103.76,0,0,1,38.93,48c-.36-.16-.68-.28-1-.39-5.18,6.44-11.47,21.61-11.46,22.27A3.82,3.82,0,0,0,28.64,70.89Z"></path><path class="cls-1" d="m104.7 60.69s-8.59-6.48-10-7.85c4.66 2.61 8.33 4.27 8.33 4.27l1.63 3.59z"></path><path class="cls-1" d="m32.61 62.18s8.55-6.48 9.92-7.84c-4.66 2.61-8.09 4.13-8.24 4.2l-1.67 3.64z"></path><polygon class="cls-1" points="68 19.64 66.81 31.86 67.36 31.75 67.99 31.66 68.67 31.61 68.51 18.31 68.35 18.63 68.17 19.09 68 19.64"></polygon><polygon class="cls-1" points="68.91 17.8 69.06 31.59 69.67 31.57 70.3 31.58 70.94 31.67 69.47 18.3 69.29 17.97 69.14 17.78 69 17.77 68.97 17.77 68.94 17.78 68.91 17.8"></polygon></g></g></svg>