<svg width="192" height="192" enable-background="new 0 0 200 200" version="1.1" viewBox="0 0 192 192" xml:space="preserve" xmlns="http://www.w3.org/2000/svg"><g transform="rotate(0 3.14 2.18) translate(17.830579786176287 17.830579786176287) scale(0.782672542816758)"><path d="m80.32 26.37c-3.51-18.11-14.67-22.84-25.52-21-12.13 2.051-22.48 15.04-15.64 31.55l4.146-10.24 8.22-12.38 14.86 2.565 6.854 4.688 7.08 4.82z" fill="#E2C9C3"></path><path d="m78.15 44.28c1.808-9.49 3.711-15.03 1.041-22.45-4.64-12.95-17.05-14.53-26.44-11.72-14.07 4.206-17.72 22.08-11.13 32.76 9.528 15.43 27.02 24.73 43.34 27.06v-10.96s-8.93-3.54-6.81-14.69zm-25.87-7.96c-4.245-6.236-2.998-14.08 2.711-16.3 3.586-1.389 8.353 0.252 11.16 4.82 4.304 6.989 2.092 13.58 2.631 21.12 0.486 6.811 4.455 10.19 4.455 10.19-6.56-4.3-16.71-13.59-20.96-19.83z" fill="#C1A097"></path><path d="m73.24 56.16c1.804 6.898 9.034 10.35 13.65 9.42l-1.122-3.516-12.53-5.9z" fill="#A37B72"></path><path d="m77.9 46.14c-1.669 2.004-3.745 5.299-4.655 10.02 0 0 3.611 5.445 11.72 7.848v-5.041s-7.92-3.15-7.06-12.83z" fill="#E2C9C3"></path><ellipse cx="100" cy="131.7" rx="33.17" ry="36.41" fill="#C1A097"></ellipse><path d="m58.38 151.9s5.623 4.957 6.19 12.72c0.589 8.064-3.808 15.69-8.577 24.09-0.322 0.567-0.589 1.071-0.811 1.516-0.745 1.498-0.723 3.271 0.062 4.749l0.02 0.037s6.103-8.559 10.02-13.47c3.914-4.907 7.297-11.41 6.567-17.71-0.729-6.301-5.125-9.623-5.125-9.623l-6.351-3.842-1.99 1.6z" fill="#E2C9C3"></path><path d="m49.41 150.3c12.56 2.124 9.092 1.477 17.32 3.863-16.02-13.51-22.53-22.88-20.51-41.55l-8.13 2.925-4.952 8.49-1.681 9.725c-0.01 4.7 4.59 14.4 17.95 16.6z" fill="#C1A097"></path><path d="m45.86 119.2c-0.014-2.064 0.104-4.243 0.354-6.569l-8.13 2.925-4.952 8.49-0.346 2.002c1.13-1.2 6.06-6.2 13.08-6.8z" fill="#A37B72"></path><path d="m52.73 55.14-6.081-5.478c-23.95-3.252-27.84 20.28-19.09 30.32l5.666-20.83 19.5-4.01z" fill="#E2C9C3"></path><path d="m59.49 58.08c-3.892-3.007-23.07-9.245-30.69 3.184-4.386 7.151-4.153 16.35 0.973 22.02 6.512 7.209 17.86 9.642 19.98 13.98h1.848c-0.348-2.125-1.301-4.495-3.436-6.81-6.279-6.811-12.29-12.82-11.68-19.64 0.56-6.155 5.212-9.729 13.26-6.898 8.053 2.83 12.21 5.395 20.7 8.226 8.491 2.83 14.5 2.743 14.5 2.743v-4.954c-6.71-1.15-23.33-10.21-25.45-11.85z" fill="#C1A097"></path><path d="m41.98 116.6c-4.157 3.536-8.038 6.191-9.287 14.24-0.828 5.332 1.061 9.812 1.061 9.812s-5.379-7.133-4.928-14.99c0.694-12.07 14.3-16.91 15.89-23.43 1.319-5.396-3e-3 -7.542-4.296-11.44 5.284 0.372 11.12 4.289 11.47 7.403 0.91 8.24-0.66 10.64-9.9 18.44z" fill="#E2C9C3"></path><path d="m141.6 151.9s-5.624 4.957-6.19 12.72c-0.589 8.064 3.808 15.69 8.577 24.08 0.322 0.567 0.59 1.071 0.811 1.517 0.746 1.498 0.725 3.272-0.061 4.75l-0.02 0.036s-6.104-8.559-10.02-13.47c-3.914-4.907-7.297-11.41-6.566-17.71 0.729-6.301 5.125-9.623 5.125-9.623l6.351-3.842 2 1.5z" fill="#E2C9C3"></path><path d="m150.6 150.3c-12.56 2.124-9.092 1.477-17.32 3.863 16.02-13.51 22.52-22.88 20.51-41.55l8.129 2.925 4.952 8.49 1.682 9.725c-0.1 4.7-4.6 14.4-18 16.6z" fill="#C1A097"></path><path d="m147.3 55.14 6.08-5.478c23.95-3.252 27.84 20.28 19.09 30.32l-5.663-20.83-19.5-4.01z" fill="#E2C9C3"></path><path d="m119.7 26.37c3.508-18.12 14.67-22.84 25.52-21 12.14 2.053 22.48 15.04 15.64 31.55l-4.147-10.24-8.2-12.38-14.86 2.565-6.854 4.688-7 4.82z" fill="#E2C9C3"></path><path d="m147.2 10.11c-9.391-2.808-21.79-1.226-26.44 11.72-2.669 7.422-0.766 12.96 1.042 22.45 2.121 11.14-6.812 14.68-6.812 14.68v10.97c16.32-2.336 33.81-11.64 43.34-27.06 6.7-10.68 3-28.55-11.1-32.76zm0.5 26.21c-4.246 6.235-14.4 15.52-20.96 19.83 0 0 3.968-3.383 4.455-10.19 0.538-7.54-1.674-14.13 2.631-21.12 2.812-4.568 7.579-6.209 11.16-4.82 5.7 2.22 7 10.07 2.7 16.3z" fill="#C1A097"></path><path d="m126.8 56.16c-1.803 6.898-9.032 10.35-13.65 9.42l1.123-3.516 12.5-5.9z" fill="#A37B72"></path><path d="m118.5 69.35s18.16-8.256 22.05-11.26c3.893-3.007 23.07-9.245 30.69 3.184 4.387 7.151 4.154 16.35-0.972 22.02-6.513 7.209-17.86 9.642-19.99 13.98h-1.848c0.348-2.125 1.301-4.495 3.437-6.81 6.278-6.811 12.29-12.82 11.68-19.64-0.56-6.155-5.211-9.729-13.26-6.898-8.053 2.83-12.21 5.395-20.7 8.226-8.492 2.83-14.51 2.743-14.51 2.743v-4.954l3.4-0.59z" fill="#C1A097"></path><path d="m158 116.6c4.156 3.536 8.037 6.191 9.287 14.24 0.827 5.332-1.062 9.812-1.062 9.812s5.38-7.133 4.927-14.99c-0.693-12.07-14.3-16.91-15.89-23.43-1.319-5.396 3e-3 -7.542 4.297-11.44-5.284 0.372-11.12 4.289-11.47 7.403-0.8 8.24 0.8 10.64 10 18.44z" fill="#E2C9C3"></path><path d="m122.1 46.14c1.671 2.004 3.744 5.299 4.655 10.02 0 0-3.611 5.445-11.72 7.848v-5.041c-0.1 0 7.9-3.15 7-12.83z" fill="#E2C9C3"></path><path d="m100 151.2c-16 0-29.35-12.43-32.47-28.98-0.453 2.398-0.695 4.883-0.695 7.429 0 20.11 14.85 36.41 33.17 36.41s33.17-16.3 33.17-36.41c0-2.546-0.242-5.03-0.695-7.429-3.2 16.5-16.5 29-32.5 29z" fill="#A37B72"></path><path d="m100 68.07c-24.67 0-44.67 23.44-44.67 52.34 0 28.91 20 52.34 44.67 52.34s44.67-23.44 44.67-52.34-20-52.33-44.7-52.33zm0 88.43c-16.08 0-29.11-16.16-29.11-36.09s13.03-36.09 29.11-36.09c16.07 0 29.1 16.16 29.1 36.09 0 19.9-13 36.1-29.1 36.1z" fill="#E2C9C3"></path><path d="m115.9 95.32c-9.494-6.264-22.35-6.264-31.84 0v-39.54c9.492 6.265 22.35 6.265 31.84 0v39.54z" fill="#E2C9C3"></path><path d="m80.9 73.09v20.14c5.114-5.531 11.78-8.905 19.1-8.905 4.574 0 8.886 1.345 12.74 3.677v-17.76c-4.039-1.405-8.311-2.171-12.74-2.171-6.8 0-13.27 1.8-19.06 5.02z" fill="#A37B72"></path><path d="m119.1 73.09v20.14c-5.116-5.531-11.79-8.905-19.11-8.905-4.574 0-8.885 1.345-12.74 3.677v-17.76c4.037-1.405 8.309-2.171 12.74-2.171 6.81 0 13.31 1.8 19.11 5.02z" fill="#A37B72"></path><path d="m115.9 95.32c-9.494-6.264-22.35-6.264-31.84 0v-39.54c9.492 6.265 22.35 6.265 31.84 0v39.54z" fill="#E2C9C3"></path></g></svg>