<svg viewBox="0 0 192 192" xmlns="http://www.w3.org/2000/svg" width="192" height="192"><g transform="rotate(0 3.14 2.18) translate(18.47107318849578 28.756834622857866) scale(1.0285761434362086)"><defs><style>.cls-1{fill:#231f20;}.cls-2{fill:#58595b;}.cls-3{fill:#d1d3d4;}</style></defs><path class="cls-1" d="m80.24 40.79c-23.57 0-42.68 7.61-42.68 17v43a4.22 4.22 0 0 0 4.22 4.21c6.9-5.69 21.53-9.62 38.45-9.62s31.56 3.93 38.46 9.62a4.22 4.22 0 0 0 4.22-4.22v-43c0-9.38-19.1-16.99-42.67-16.99z"></path><path class="cls-2" d="M80.31,55.12C86.82,73,98.06,102,142.68,85.78,129.77,50.32,111.82,43.65,80.31,55.12Z"></path><path class="cls-1" d="M145.24,87l-1.88.68C96.26,104.8,84.66,72.93,78.43,55.8l-.68-1.88,1.88-.68c33.9-12.34,52.1-3.41,64.94,31.86ZM82.88,56.33c6.17,16.77,17,42,57.22,28.24C128.4,53.82,112.63,46,82.88,56.33Z"></path><path class="cls-3" d="M134.1,83.28a2,2,0,0,1-1.52-.06,2,2,0,0,1-1-1.13,2,2,0,0,1,.07-1.53,2.06,2.06,0,0,1,2.66-1,2,2,0,0,1,1,1.13,2,2,0,0,1-1.2,2.56Z"></path><path class="cls-3" d="m125.9 85a2 2 0 0 1-2.26-1.7 2 2 0 0 1 1.7-2.26 2 2 0 0 1 2.26 1.7 2 2 0 0 1-1.29 2.15 1.83 1.83 0 0 1-0.41 0.11zm-8.26 0.46a2 2 0 0 1-1.92-2.08 2 2 0 0 1 2.08-1.92 2 2 0 0 1 1.92 2.08 2 2 0 0 1-1.31 1.8 2 2 0 0 1-0.77 0.14zm-8.3-1.37a2 2 0 0 1-1.32-2.5 2 2 0 0 1 2.51-1.33 2 2 0 0 1 1.31 2.5 2 2 0 0 1-1.22 1.29 2 2 0 0 1-1.28 0.06zm-7.64-3.72a2 2 0 0 1-0.5-2.79 2 2 0 0 1 2.79-0.5 2 2 0 0 1 0.49 2.79 1.94 1.94 0 0 1-0.95 0.73 2 2 0 0 1-1.84-0.21zm-6.18-5.77a2 2 0 0 1 0.29-2.81 2 2 0 0 1 2.82 0.28 2 2 0 0 1-0.29 2.81 1.93 1.93 0 0 1-0.58 0.34 2 2 0 0 1-2.24-0.62z"></path><path class="cls-3" d="M90.12,61.36a2,2,0,0,1-2.5-2.72,2.06,2.06,0,0,1,2.66-1,2,2,0,0,1-.16,3.69Z"></path><path class="cls-3" d="m128.2 75.2a2 2 0 0 1 0.78-2.72 2 2 0 0 1 2.72 0.78 2 2 0 0 1-0.78 2.72 1.64 1.64 0 0 1-0.28 0.13 2 2 0 0 1-2.44-0.91zm-4.15-6.41a2 2 0 0 1 0.34-2.81 2 2 0 0 1 2.81 0.35 2 2 0 0 1-0.34 2.81 2.23 2.23 0 0 1-0.55 0.31 2 2 0 0 1-2.26-0.66zm-11.65-8.69a2 2 0 0 1-1.3-2.51 2 2 0 0 1 2.52-1.3 2 2 0 0 1 1.3 2.52 2 2 0 0 1-1.23 1.27 2 2 0 0 1-1.29 0.02zm-7.27-1.1a2 2 0 0 1-2-2 2 2 0 0 1 2-2 2 2 0 0 1 2 2 2 2 0 0 1-1.32 1.85 2 2 0 0 1-0.68 0.15zm-7.56 0.64a2 2 0 0 1-2.31-1.64 2 2 0 0 1 1.64-2.31 2 2 0 0 1 2.31 1.64 2 2 0 0 1-1.29 2.21 2.29 2.29 0 0 1-0.35 0.1z"></path><path class="cls-2" d="m65.21 60.61c6.52 17.9 16.55 47.39-28.07 63.58-12.9-35.45-3.44-52.11 28.07-63.58z"></path><path class="cls-1" d="M37.82,126.07l-1.88.68-.68-1.88C22.43,89.61,30.63,71.07,64.53,58.73L66.41,58l.68,1.88C73.33,77.05,84.93,108.93,37.82,126.07ZM64,63.19C34.61,74.44,27.53,90.54,38.34,121.6,78,106.29,70.08,80,64,63.19Z"></path><path class="cls-3" d="m42.11 116.8a2 2 0 0 1-2.5-2.72 2.06 2.06 0 0 1 2.66-1 2 2 0 0 1 1 2.65 2 2 0 0 1-1.16 1.07z"></path><path class="cls-3" d="m39.88 109.1a2 2 0 0 1-2.34-1.58 2 2 0 0 1 1.58-2.34 2 2 0 0 1 2.34 1.58 2 2 0 0 1-1.27 2.23 1.67 1.67 0 0 1-0.31 0.11zm-1.26-7.87a2 2 0 0 1-2.06-1.93 2 2 0 0 1 1.93-2.06 2 2 0 0 1 2.06 1.93 2 2 0 0 1-1.31 1.95 1.94 1.94 0 0 1-0.62 0.12zm2.47-15.58a2 2 0 0 1-0.62-2.75 2 2 0 0 1 2.75-0.63 2 2 0 0 1 0.63 2.76 2 2 0 0 1-1 0.81 2 2 0 0 1-1.76-0.18zm4.78-6.36a2 2 0 0 1 0.2-2.82 2 2 0 0 1 2.83 0.21 2 2 0 0 1-0.21 2.82 1.88 1.88 0 0 1-0.62 0.36 2 2 0 0 1-2.19-0.56zm6.29-4.88a2 2 0 0 1 0.72-2.73 2 2 0 0 1 2.73 0.72 2 2 0 0 1-0.72 2.73 1.39 1.39 0 0 1-0.32 0.16 2 2 0 0 1-2.4-0.87z"></path><path class="cls-3" d="m61.71 71.7a2 2 0 0 1-2.5-2.7 2.06 2.06 0 0 1 2.66-1 2 2 0 0 1-0.16 3.69z"></path><path class="cls-3" d="m46.76 112.2a2 2 0 0 1 0.65-2.76 2 2 0 0 1 2.75 0.64 2 2 0 0 1-0.64 2.75 1.93 1.93 0 0 1-0.37 0.19 2 2 0 0 1-2.39-0.82zm6.55-4.46a2 2 0 0 1 0.13-2.82 2 2 0 0 1 2.83 0.13 2 2 0 0 1-0.13 2.83 2 2 0 0 1-0.66 0.4 2 2 0 0 1-2.18-0.54zm5.52-5.67a2 2 0 0 1-0.59-2.76 2 2 0 0 1 2.76-0.6 2 2 0 0 1 0.6 2.76 2 2 0 0 1-1 0.79 2 2 0 0 1-1.77-0.19zm3.77-7a2 2 0 0 1-1.41-2.45 2 2 0 0 1 2.45-1.41 2 2 0 0 1 1.41 2.45 2 2 0 0 1-1.25 1.35 1.94 1.94 0 0 1-1.2 0.1zm1.48-7.78a2 2 0 0 1-2-2 2 2 0 0 1 2-2 2 2 0 0 1 2 2 2 2 0 0 1-1.32 1.91 2.08 2.08 0 0 1-0.68 0.13z"></path><path class="cls-1" d="M31.66,95c12.77-2.79,25.08-11.22,37.61-21.69a125.17,125.17,0,0,0-4.06-12.71C44,68.34,32.78,78.42,31.66,95Z"></path><path class="cls-2" d="m69.34 64.67c-15 12.77-29.57 23-44.93 24.56a61.59 61.59 0 0 1-16.3-44.81c12.77-8.68 30.53-10.21 50.21-10.06a60.3 60.3 0 0 1 11.02 30.31z"></path><path class="cls-2" d="m69.34 64.67c-15 12.77-29.57 23-44.93 24.56a61.59 61.59 0 0 1-16.3-44.81c12.77-8.68 30.53-10.21 50.21-10.06a60.3 60.3 0 0 1 11.02 30.31z"></path><path class="cls-1" d="M36.37,88.45a49,49,0,0,1-11.76,2.77l-1,.1-.68-.76A63.79,63.79,0,0,1,6.11,44.36l0-1L7,42.77a49,49,0,0,1,10.78-5.43c12.52-4.56,27.53-5.07,40.56-5h1l.59.84A62.57,62.57,0,0,1,71.34,64.5l.09,1-.78.67C60.72,74.64,48.9,83.9,36.37,88.45ZM25.22,87.13A45.75,45.75,0,0,0,35,84.69c11.6-4.22,22.77-12.85,32.25-20.88a58.49,58.49,0,0,0-10-27.46c-12.43-.06-26.53.52-38.13,4.74a45.62,45.62,0,0,0-9.06,4.42A59.75,59.75,0,0,0,25.22,87.13Z"></path><path class="cls-3" d="M27.91,83.61a2,2,0,0,1-1.53-.07,2,2,0,0,1-1-2.66,2.08,2.08,0,0,1,2.66-1,2,2,0,0,1-.16,3.7Z"></path><path class="cls-3" d="m21.35 76.88a2 2 0 0 1 0.65-2.76 2 2 0 0 1 2.75 0.65 2 2 0 0 1-0.66 2.76 1.82 1.82 0 0 1-0.37 0.18 2 2 0 0 1-2.37-0.83zm-3.51-6.63a2 2 0 0 1 1-2.63 2 2 0 0 1 2.64 1 2 2 0 0 1-1 2.65h-0.13a2 2 0 0 1-2.51-1.02zm-0.1-5.68a2 2 0 0 1-2.47-1.38 2 2 0 0 1 1.37-2.47 2 2 0 0 1 2.48 1.37 2 2 0 0 1-1.24 2.43zm-1.78-7a2 2 0 0 1-2.26-1.69 2 2 0 0 1 1.69-2.26 2 2 0 0 1 2.26 1.69 2 2 0 0 1-1.29 2.17 1.79 1.79 0 0 1-0.36 0.07z"></path><path class="cls-3" d="m15.76 50.25a2 2 0 0 1-2.5-2.73 2.08 2.08 0 0 1 2.66-1 2 2 0 0 1 1 2.66 2 2 0 0 1-1.16 1.07z"></path><path class="cls-3" d="m46.54 43.52a2 2 0 0 1-2.09-1.91 2 2 0 0 1 1.91-2.08 2 2 0 0 1 2.09 1.91 2 2 0 0 1-1.32 2 1.83 1.83 0 0 1-0.59 0.08zm-8 0.57a2 2 0 0 1-2.19-1.79 2 2 0 0 1 1.79-2.19 2 2 0 0 1 2.19 1.79 2 2 0 0 1-1.27 2.1 2 2 0 0 1-0.48 0.09zm-7.84 1.12a2 2 0 0 1-2.35-1.59 2 2 0 0 1 1.65-2.34 2 2 0 0 1 2.33 1.59 2 2 0 0 1-1.33 2.25zm-7.6 1.92a2 2 0 0 1-2.52-1.29 2 2 0 0 1 1.29-2.52 2 2 0 0 1 2.52 1.29 2 2 0 0 1-1.22 2.5z"></path><path class="cls-3" d="M55.23,43.23a2,2,0,0,1-2.49-2.72,2.07,2.07,0,0,1,2.66-1,2,2,0,0,1-.17,3.69Z"></path><path class="cls-3" d="M62.65,63.61a2,2,0,0,1-2.56-1.19,2.06,2.06,0,0,1,.07-1.54,2.08,2.08,0,0,1,2.66-1,2,2,0,0,1,1,1.14,2,2,0,0,1-1.2,2.56Z"></path><path class="cls-3" d="m33.1 80.11a2 2 0 0 1 1.11-2.61 2 2 0 0 1 2.6 1.1 2 2 0 0 1-1.11 2.61h-0.07a2 2 0 0 1-2.53-1.1zm7.39-3.3a2 2 0 0 1 0.77-2.73 2 2 0 0 1 2.72 0.78 2 2 0 0 1-0.77 2.72 1.63 1.63 0 0 1-0.29 0.14 2 2 0 0 1-2.43-0.91zm7-4.13a2 2 0 0 1 0.51-2.78 2 2 0 0 1 2.78 0.53 2 2 0 0 1-0.53 2.78 2.09 2.09 0 0 1-0.44 0.22 2 2 0 0 1-2.36-0.76zm6.58-4.68a2 2 0 0 1 0.37-2.81 2 2 0 0 1 2.8 0.36 2 2 0 0 1-0.37 2.81 2.08 2.08 0 0 1-0.53 0.29 2 2 0 0 1-2.27-0.65z"></path><path class="cls-1" d="m128.1 59.9c-11.52-12-26.59-12.51-47.81-4.78a125.5 125.5 0 0 0 5.06 12.35c16.32-0.05 31.17-1.47 42.75-7.57z"></path><path class="cls-2" d="M68.72,30.58c15-12.77,29.57-23,44.93-24.57A61.6,61.6,0,0,1,130,50.82C117.18,59.5,99.43,61,79.75,60.88A60.3,60.3,0,0,1,68.72,30.58Z"></path><path class="cls-1" d="M120.29,57.91c-12.52,4.56-27.53,5.07-40.56,5h-1L78.11,62A62.55,62.55,0,0,1,66.72,30.74l-.09-1,.78-.67c9.92-8.45,21.74-17.71,34.27-22.26A49,49,0,0,1,113.44,4l1-.1.68.76A63.8,63.8,0,0,1,132,50.89l0,1-.84.57A48.94,48.94,0,0,1,120.29,57.91Zm-39.5,1c12.43.06,26.53-.51,38.13-4.74A45.71,45.71,0,0,0,128,49.73,59.75,59.75,0,0,0,112.84,8.12a45.74,45.74,0,0,0-9.78,2.43C91.45,14.77,80.28,23.39,70.8,31.43A58.53,58.53,0,0,0,80.8,58.89Z"></path><path class="cls-3" d="m84.19 55.77a2 2 0 0 1-2.56-1.2 2 2 0 0 1 0.06-1.57 2.08 2.08 0 0 1 2.66-1 2 2 0 0 1 1 1.14 2 2 0 0 1-0.06 1.52 2 2 0 0 1-1.1 1.11z"></path><path class="cls-3" d="M76.77,35.4a2,2,0,0,1-2.49-2.73,2.08,2.08,0,0,1,2.66-1,2,2,0,0,1-.17,3.7Z"></path><path class="cls-3" d="m80.82 29.67a2 2 0 0 1 0.36-2.81 2 2 0 0 1 2.8 0.36 2 2 0 0 1-0.36 2.78 2.1 2.1 0 0 1-0.53 0.29 2 2 0 0 1-2.27-0.62zm6.48-4.86a2 2 0 0 1 0.53-2.81 2 2 0 0 1 2.78 0.53 2 2 0 0 1-0.53 2.78 2 2 0 0 1-0.44 0.22 2 2 0 0 1-2.34-0.72zm6.79-4.42a2 2 0 0 1 0.76-2.73 2 2 0 0 1 2.73 0.76 2 2 0 0 1-0.77 2.73 1.73 1.73 0 0 1-0.29 0.13 2 2 0 0 1-2.44-0.89zm7.17-3.76a2 2 0 0 1 1.1-2.63 2 2 0 0 1 2.6 1.11 2 2 0 0 1-1.11 2.61h-0.07a2 2 0 0 1-2.53-1.08z"></path><path class="cls-3" d="M111.53,15.4A2,2,0,0,1,109,14.2a2,2,0,0,1,.06-1.53,2.08,2.08,0,0,1,2.66-1,2,2,0,0,1-.16,3.7Z"></path><path class="cls-3" d="m122.7 41.65a2 2 0 0 1-2.28-1.65 2 2 0 0 1 1.7-2.27 2 2 0 0 1 2.26 1.69 2 2 0 0 1-1.29 2.17 2.83 2.83 0 0 1-0.39 0.06zm-1.26-7.13a2 2 0 0 1-2.47-1.37 2 2 0 0 1 1.37-2.48 2 2 0 0 1 2.47 1.33 2 2 0 0 1-1.23 2.43zm-4.84-7.9a2 2 0 0 1 1-2.64 2 2 0 0 1 2.63 1 2 2 0 0 1-1 2.65h-0.13a2 2 0 0 1-2.51-1.01zm-3.26-6.15a2 2 0 0 1 0.65-2.75 2 2 0 0 1 2.75 0.65 2 2 0 0 1-0.65 2.75 1.91 1.91 0 0 1-0.37 0.18 2 2 0 0 1-2.39-0.83z"></path><path class="cls-3" d="m123.7 48.76a2 2 0 0 1-1.54-0.07 2 2 0 0 1-1-2.66 2.08 2.08 0 0 1 2.66-1 2 2 0 0 1 1 1.13 2 2 0 0 1-1.2 2.56z"></path><path class="cls-3" d="m113.6 50.65a2 2 0 0 1 1.28-2.53 2 2 0 0 1 2.51 1.28 2 2 0 0 1-1.27 2.52 2 2 0 0 1-2.52-1.27zm-5.57 3.35a2 2 0 0 1-2.34-1.58 2 2 0 0 1 1.6-2.34 2 2 0 0 1 2.33 1.59 2 2 0 0 1-1.28 2.25 1.78 1.78 0 0 1-0.31 0.08zm-8.18 1.17a2 2 0 0 1-2.19-1.78 2 2 0 0 1 1.79-2.19 2 2 0 0 1 2.19 1.78 2 2 0 0 1-1.3 2.09 1.67 1.67 0 0 1-0.49 0.06zm-8.2 0.58a2 2 0 0 1-2.08-1.92 2 2 0 0 1 1.91-2.08 2 2 0 0 1 2.08 1.91 2 2 0 0 1-1.31 2 1.87 1.87 0 0 1-0.6 0.05z"></path><path class="cls-1" d="M45.5,64.85c-4.71-.75,3.51-6.29,2.33-9.52s-11-2.19-7.91-5.79,27.17-1.22,27.17-1.22S50.21,65.6,45.5,64.85Z"></path><path class="cls-1" d="M92.56,30.39c4.71.75-3.51,6.29-2.34,9.52s11,2.19,7.91,5.79S71,46.92,71,46.92,87.85,29.64,92.56,30.39Z"></path><path class="cls-2" d="m70.83 28.76a21.35 21.35 0 0 0-15.29 5.6c1.33 5.24 3.1 10.9 5.08 16.33s4.26 10.91 6.61 15.77a21.36 21.36 0 0 0 15.31-5.54c-1.34-5.24-3.12-10.92-5.1-16.36s-4.27-10.94-6.61-15.8z"></path><path class="cls-1" d="M76.17,67.06h0a24.19,24.19,0,0,1-9,1.39l-1.22,0-.53-1.1c-2.33-4.83-4.64-10.35-6.68-16S54.92,40,53.6,34.84l-.3-1.18.91-.81a23.46,23.46,0,0,1,16.67-6.1l1.22,0,.53,1.1c2.33,4.83,4.65,10.36,6.69,16s3.83,11.36,5.15,16.55l.3,1.18-.91.81A23.9,23.9,0,0,1,76.17,67.06Zm-7.68-2.6a19.84,19.84,0,0,0,6.31-1.16h0a19.57,19.57,0,0,0,5.48-3.11c-1.25-4.74-2.87-9.88-4.71-15s-3.91-10.05-6-14.49a19.2,19.2,0,0,0-11.77,4.31C59,39.81,60.66,44.94,62.5,50S66.4,60,68.49,64.46Z"></path><path class="cls-3" d="m71 58.85a2 2 0 0 1 1.2-2.56 2 2 0 0 1 2.57 1.19 2 2 0 0 1-1.22 2.52 2 2 0 0 1-2.55-1.15zm-2.56-7a2 2 0 0 1 1.19-2.56 2 2 0 0 1 2.57 1.19 2 2 0 0 1-1.2 2.52 2 2 0 0 1-2.57-1.18zm-2.56-7a2 2 0 0 1 1.2-2.56 2 2 0 0 1 2.57 1.19 2 2 0 0 1-1.22 2.52 2 2 0 0 1-2.56-1.21zm-2.56-7a2 2 0 0 1 1.18-2.65 2 2 0 0 1 2.58 1.19 2 2 0 0 1-1.21 2.61 2 2 0 0 1-2.56-1.24z"></path></g></svg>