<svg viewBox="0 0 192 192" xmlns="http://www.w3.org/2000/svg" width="192" height="192"><g transform="rotate(0 3.14 2.18) translate(20.47320162979041 31.90042407823819) scale(1.4284028060559735)"><defs><style>.cls-1{fill:#e18926;}.cls-2{fill:#f9c442;}.cls-3{fill:#cd6228;}.cls-4{fill:#ffd832;}.cls-5{fill:#fef6ac;}</style></defs><path class="cls-1" d="M102.85,55.07C98.1,42.32,77.62,32.69,53.07,32.69S7.9,42.32,3.29,55.07H2.2v5.56C2.2,76.09,25,88.57,53.07,88.57s50.86-12.48,50.86-27.94V55.07h-1.09Z"></path><path class="cls-2" d="M102.85,48.69C98.1,35.94,77.62,26.31,53.07,26.31S7.9,35.94,3.29,48.69H2.2v5.56C2.2,69.72,25,82.2,53.07,82.2s50.86-12.48,50.86-27.94V48.69Z"></path><path class="cls-1" d="M102.85,42.32C98.1,29.57,77.62,19.94,53.07,19.94S7.9,29.57,3.29,42.32H2.2v5.56C2.2,63.34,25,75.82,53.07,75.82s50.86-12.48,50.86-27.94V42.32Z"></path><path class="cls-2" d="M102.85,36.08C98.1,23.33,77.62,13.7,53.07,13.7S7.9,23.33,3.29,36.08H2.2v5.56C2.2,57.1,25,69.58,53.07,69.58s50.86-12.48,50.86-27.94V36.08h-1.09Z"></path><path class="cls-1" d="M102.85,29.7C98.1,17,77.62,7.32,53.07,7.32S7.9,17,3.29,29.7H2.2v5.56C2.2,50.73,25,63.21,53.07,63.21s50.86-12.48,50.86-27.94V29.7Z"></path><path class="cls-3" d="M6.68,38.66V53.58a3.5,3.5,0,0,0,3.53,3.53,3.59,3.59,0,0,0,3.53-3.53V51a3.53,3.53,0,0,1,7.05,0V63.75a3.59,3.59,0,0,0,3.53,3.53,3.5,3.5,0,0,0,3.53-3.53V38.52H6.68Z"></path><path class="cls-3" d="M99.32,38.66V58.59a3.59,3.59,0,0,1-3.53,3.53,3.5,3.5,0,0,1-3.53-3.53V56a3.59,3.59,0,0,0-3.53-3.53A3.5,3.5,0,0,0,85.21,56v9a3.5,3.5,0,0,1-3.53,3.53A3.59,3.59,0,0,1,78.16,65V38.52H99.32Z"></path><path class="cls-3" d="M35.16,48V67.14a3.53,3.53,0,1,0,7.05,0V63.75a3.59,3.59,0,0,1,3.53-3.53,3.5,3.5,0,0,1,3.53,3.53v11.8a3.5,3.5,0,0,0,3.53,3.53,3.59,3.59,0,0,0,3.53-3.53V67.82a3.5,3.5,0,0,1,3.53-3.53,3.59,3.59,0,0,1,3.53,3.53V73a3.53,3.53,0,1,0,7.05,0V47.88H35.16Z"></path><ellipse class="cls-2" cx="52.93" cy="29.7" rx="50.86" ry="27.94"></ellipse><ellipse class="cls-1" cx="52.93" cy="28.75" rx="43.54" ry="23.06"></ellipse><rect class="cls-2" x="9.39" y="28.35" width="87.22" height="2.71"></rect><rect class="cls-2" x="51.58" y="5.7" width="2.71" height="47.88"></rect><rect class="cls-2" x="66.22" y="5.42" width="2.71" height="48.15"></rect><rect class="cls-2" x="80.74" y="10.17" width="2.71" height="39.47"></rect><rect class="cls-2" x="37.06" y="5.42" width="2.71" height="48.15"></rect><rect class="cls-2" x="22.55" y="10.17" width="2.71" height="39.47"></rect><rect class="cls-2" x="9.12" y="36.21" width="87.62" height="2.71"></rect><rect class="cls-2" x="16.31" y="44.22" width="71.89" height="2.71"></rect><rect class="cls-2" x="9.12" y="20.21" width="87.62" height="2.71"></rect><rect class="cls-2" x="16.31" y="12.21" width="71.89" height="2.71"></rect><path class="cls-4" d="M45.34,25.09a1.28,1.28,0,0,1,1.36-1.36H59.31a1.36,1.36,0,0,1,1.36,1.36V35a1.28,1.28,0,0,1-1.36,1.36H46.69A1.28,1.28,0,0,1,45.34,35Z"></path><path class="cls-5" d="M45.34,25.09a1.28,1.28,0,0,1,1.36-1.36H59.31a1.36,1.36,0,0,1,1.36,1.36v7.19a1.28,1.28,0,0,1-1.36,1.36H46.69a1.28,1.28,0,0,1-1.36-1.36Z"></path></g></svg>