<svg viewBox="0 0 192 192" xmlns="http://www.w3.org/2000/svg" xmlns:xlink="http://www.w3.org/1999/xlink" width="192" height="192"><g transform="rotate(0 3.14 2.18) translate(11.79658971334321 26.304609728949615) scale(2.2757678455853187)"><defs><style>.cls-1{isolation:isolate;}.cls-2{opacity:0.75;}.cls-109,.cls-110,.cls-3{fill:#fff;}.cls-4{fill:#efcf33;}.cls-5{fill:url(#b);}.cls-6{fill:url(#ai);}.cls-7{fill:url(#x);}.cls-8{fill:url(#p);}.cls-9{fill:url(#o);}.cls-10{fill:url(#n);}.cls-11{fill:url(#m);}.cls-12{fill:url(#l);}.cls-13{fill:url(#k);}.cls-14{fill:url(#as);}.cls-15{fill:url(#ar);}.cls-16{fill:url(#aq);}.cls-17{fill:url(#ap);}.cls-18{fill:url(#ao);}.cls-19{fill:url(#an);}.cls-20{fill:url(#am);}.cls-21{fill:url(#al);}.cls-22{fill:url(#ak);}.cls-23{fill:url(#aj);}.cls-24{fill:url(#ah);}.cls-25{fill:url(#ag);}.cls-26{fill:url(#af);}.cls-27{fill:url(#ae);}.cls-28{fill:url(#ad);}.cls-29{fill:url(#ac);}.cls-30{fill:url(#ab);}.cls-31{fill:url(#aa);}.cls-32{fill:url(#z);}.cls-33{fill:url(#y);}.cls-34{fill:url(#w);}.cls-35{fill:url(#v);}.cls-36{fill:url(#u);}.cls-37{fill:url(#t);}.cls-38{fill:url(#s);}.cls-39{fill:url(#r);}.cls-40{fill:url(#a);}.cls-41{fill:url(#cr);}.cls-42{fill:url(#cg);}.cls-43{fill:url(#bv);}.cls-44{fill:url(#bk);}.cls-45{fill:url(#az);}.cls-46{fill:url(#av);}.cls-47{fill:url(#au);}.cls-48{fill:url(#at);}.cls-49{fill:url(#db);}.cls-50{fill:url(#da);}.cls-51{fill:url(#cz);}.cls-52{fill:url(#cy);}.cls-53{fill:url(#cx);}.cls-54{fill:url(#cw);}.cls-55{fill:url(#cv);}.cls-56{fill:url(#cu);}.cls-57{fill:url(#ct);}.cls-58{fill:url(#cs);}.cls-59{fill:url(#cq);}.cls-60{fill:url(#cp);}.cls-61{fill:url(#co);}.cls-62{fill:url(#cn);}.cls-63{fill:url(#cm);}.cls-64{fill:url(#cl);}.cls-65{fill:url(#ck);}.cls-66{fill:url(#cj);}.cls-67{fill:url(#ci);}.cls-68{fill:url(#ch);}.cls-69{fill:url(#cf);}.cls-70{fill:url(#ce);}.cls-71{fill:url(#cd);}.cls-72{fill:url(#cc);}.cls-73{fill:url(#cb);}.cls-74{fill:url(#ca);}.cls-75{fill:url(#bz);}.cls-76{fill:url(#by);}.cls-77{fill:url(#bx);}.cls-78{fill:url(#bw);}.cls-79{fill:url(#bu);}.cls-80{fill:url(#bt);}.cls-81{fill:url(#bs);}.cls-82{fill:url(#br);}.cls-83{fill:url(#bq);}.cls-84{fill:url(#bp);}.cls-85{fill:url(#bo);}.cls-86{fill:url(#bn);}.cls-87{fill:url(#bm);}.cls-88{fill:url(#bl);}.cls-89{fill:url(#bj);}.cls-90{fill:url(#bi);}.cls-91{fill:url(#bh);}.cls-92{fill:url(#bg);}.cls-93{fill:url(#bf);}.cls-94{fill:url(#be);}.cls-95{fill:url(#bd);}.cls-96{fill:url(#bc);}.cls-97{fill:url(#bb);}.cls-98{fill:url(#ba);}.cls-99{fill:url(#ay);}.cls-100{fill:url(#ax);}.cls-101{fill:url(#c);}.cls-102{fill:url(#i);}.cls-103{fill:url(#h);}.cls-104{fill:url(#g);}.cls-105{fill:url(#f);}.cls-106{fill:url(#e);}.cls-107{fill:url(#d);}.cls-108{fill:url(#aw);}.cls-109{opacity:0.15;}.cls-109,.cls-110{mix-blend-mode:overlay;}.cls-110{opacity:0.2;}.cls-111{fill:url(#j);}.cls-112{fill:url(#q);}</style><linearGradient id="b" x1="18.73" x2="19.06" y1="39.47" y2="39.47" gradientUnits="userSpaceOnUse"><stop stop-color="#fff" offset=".02"></stop><stop stop-color="#87d0cb" offset=".5"></stop><stop stop-color="#5eb6ca" offset=".67"></stop><stop stop-color="#3098c9" offset=".89"></stop><stop stop-color="#1e8cc9" offset="1"></stop></linearGradient><linearGradient id="ai" x1="32.71" x2="33.47" y1="47.77" y2="47.77" xlink:href="#b"></linearGradient><linearGradient id="x" x1="41.16" x2="42.15" y1="45.96" y2="45.96" xlink:href="#b"></linearGradient><linearGradient id="p" x1="63.39" x2="64.38" y1="24.78" y2="24.78" xlink:href="#b"></linearGradient><linearGradient id="o" x1="10.41" x2="11.4" y1="33.51" y2="33.51" xlink:href="#b"></linearGradient><linearGradient id="n" x1="9.49" x2="10.05" y1="36.4" y2="36.4" xlink:href="#b"></linearGradient><linearGradient id="m" x1="11.88" x2="12.62" y1="29.55" y2="29.55" xlink:href="#b"></linearGradient><linearGradient id="l" x1="11.43" x2="11.89" y1="31.34" y2="31.34" xlink:href="#b"></linearGradient><linearGradient id="k" x1="13.61" x2="14.07" y1="31.17" y2="31.17" xlink:href="#b"></linearGradient><linearGradient id="as" x1="15.68" x2="16.17" y1="26.47" y2="26.47" xlink:href="#b"></linearGradient><linearGradient id="ar" x1="47.31" x2="48.3" y1="41.97" y2="41.97" xlink:href="#b"></linearGradient><linearGradient id="aq" x1="61.44" x2="62.3" y1="18.67" y2="18.67" xlink:href="#b"></linearGradient><linearGradient id="ap" x1="43.3" x2="43.89" y1="10.76" y2="10.76" xlink:href="#b"></linearGradient><linearGradient id="ao" x1="45.2" x2="45.79" y1="9.92" y2="9.92" xlink:href="#b"></linearGradient><linearGradient id="an" x1="49.62" x2="50.11" y1="10.67" y2="10.67" xlink:href="#b"></linearGradient><linearGradient id="am" x1="46.11" x2="46.4" y1="11.94" y2="11.94" xlink:href="#b"></linearGradient><linearGradient id="al" x1="38.42" x2="38.7" y1="11.85" y2="11.85" xlink:href="#b"></linearGradient><linearGradient id="ak" x1="36.41" x2="36.69" y1="12.12" y2="12.12" xlink:href="#b"></linearGradient><linearGradient id="aj" x1="50.65" x2="51.38" y1="41.47" y2="41.47" xlink:href="#b"></linearGradient><linearGradient id="ah" x1="55.84" x2="56.57" y1="37.53" y2="37.53" xlink:href="#b"></linearGradient><linearGradient id="ag" x1="58.26" x2="59.25" y1="35.82" y2="35.82" xlink:href="#b"></linearGradient><linearGradient id="af" x1="61.26" x2="61.94" y1="32.62" y2="32.62" xlink:href="#b"></linearGradient><linearGradient id="ae" x1="52.33" x2="52.93" y1="26.84" y2="26.84" xlink:href="#b"></linearGradient><linearGradient id="ad" x1="53.04" x2="53.51" y1="21.04" y2="21.04" xlink:href="#b"></linearGradient><linearGradient id="ac" x1="52.84" x2="53.73" y1="25.56" y2="25.56" xlink:href="#b"></linearGradient><linearGradient id="ab" x1="53.1" x2="53.99" y1="22.56" y2="22.56" xlink:href="#b"></linearGradient><linearGradient id="aa" x1="53.97" x2="54.86" y1="21.63" y2="21.63" xlink:href="#b"></linearGradient><linearGradient id="z" x1="55.89" x2="56.57" y1="23.07" y2="23.07" xlink:href="#b"></linearGradient><linearGradient id="y" x1="47.11" x2="47.65" y1="32.96" y2="32.96" xlink:href="#b"></linearGradient><linearGradient id="w" x1="50.71" x2="51.15" y1="28.06" y2="28.06" xlink:href="#b"></linearGradient><linearGradient id="v" x1="54.13" x2="54.56" y1="27.33" y2="27.33" xlink:href="#b"></linearGradient><linearGradient id="u" x1="43.8" x2="44.24" y1="35.8" y2="35.8" xlink:href="#b"></linearGradient><linearGradient id="t" x1="41.69" x2="42.02" y1="37.23" y2="37.23" xlink:href="#b"></linearGradient><linearGradient id="s" x1="8.91" x2="9.78" y1="31.62" y2="31.62" xlink:href="#b"></linearGradient><linearGradient id="r" x1="11.93" x2="12.37" y1="26.23" y2="26.23" xlink:href="#b"></linearGradient><linearGradient id="a" x1="46.31" x2="47.24" y1="44.73" y2="44.73" gradientUnits="userSpaceOnUse"><stop stop-color="#e1bbd8" offset="0"></stop><stop stop-color="#d8b6d5" offset=".11"></stop><stop stop-color="#c0a7cc" offset=".29"></stop><stop stop-color="#988fbe" offset=".52"></stop><stop stop-color="#616daa" offset=".79"></stop><stop stop-color="#315099" offset="1"></stop></linearGradient><linearGradient id="cr" x1="39.16" x2="40.09" y1="44.8" y2="44.8" xlink:href="#a"></linearGradient><linearGradient id="cg" x1="12.37" x2="13.06" y1="35.56" y2="35.56" xlink:href="#a"></linearGradient><linearGradient id="bv" x1="8.74" x2="9.3" y1="34.33" y2="34.33" xlink:href="#a"></linearGradient><linearGradient id="bk" x1="15.2" x2="15.53" y1="40.12" y2="40.12" xlink:href="#a"></linearGradient><linearGradient id="az" x1="11.07" x2="11.51" y1="38.55" y2="38.55" xlink:href="#a"></linearGradient><linearGradient id="av" x1="7.52" x2="8.25" y1="35.76" y2="35.76" xlink:href="#a"></linearGradient><linearGradient id="au" x1="8.46" x2="8.77" y1="35.59" y2="35.59" xlink:href="#a"></linearGradient><linearGradient id="at" x1="6.54" x2="6.99" y1="30.06" y2="30.06" xlink:href="#a"></linearGradient><linearGradient id="db" x1="10.71" x2="11.16" y1="23.4" y2="23.4" xlink:href="#a"></linearGradient><linearGradient id="da" x1="13.86" x2="14.2" y1="23.57" y2="23.57" xlink:href="#a"></linearGradient><linearGradient id="cz" x1="12.18" x2="12.64" y1="25.11" y2="25.11" xlink:href="#a"></linearGradient><linearGradient id="cy" x1="9.69" x2="10.15" y1="29.05" y2="29.05" xlink:href="#a"></linearGradient><linearGradient id="cx" x1="17.26" x2="17.6" y1="19.77" y2="19.77" xlink:href="#a"></linearGradient><linearGradient id="cw" x1="15.49" x2="15.84" y1="20.17" y2="20.17" xlink:href="#a"></linearGradient><linearGradient id="cv" x1="7.62" x2="7.96" y1="25.39" y2="25.39" xlink:href="#a"></linearGradient><linearGradient id="cu" x1="14.91" x2="15.26" y1="21.81" y2="21.81" xlink:href="#a"></linearGradient><linearGradient id="ct" x1="5.02" x2="5.46" y1="33.21" y2="33.21" xlink:href="#a"></linearGradient><linearGradient id="cs" x1="20.13" x2="20.46" y1="41.97" y2="41.97" xlink:href="#a"></linearGradient><linearGradient id="cq" x1="42.01" x2="42.78" y1="42.72" y2="42.72" xlink:href="#a"></linearGradient><linearGradient id="cp" x1="47.58" x2="48.51" y1="40.03" y2="40.03" xlink:href="#a"></linearGradient><linearGradient id="co" x1="45.34" x2="46.26" y1="47.38" y2="47.38" xlink:href="#a"></linearGradient><linearGradient id="cn" x1="38.55" x2="39.24" y1="51.68" y2="51.68" xlink:href="#a"></linearGradient><linearGradient id="cm" x1="51.79" x2="52.23" y1="50.5" y2="50.5" xlink:href="#a"></linearGradient><linearGradient id="cl" x1="63.83" x2="64.27" y1="37.07" y2="37.07" xlink:href="#a"></linearGradient><linearGradient id="ck" x1="37.85" x2="38.29" y1="9.26" y2="9.26" xlink:href="#a"></linearGradient><linearGradient id="cj" x1="66.09" x2="66.79" y1="35.65" y2="35.65" xlink:href="#a"></linearGradient><linearGradient id="ci" x1="29.75" x2="30.44" y1="54.67" y2="54.67" xlink:href="#a"></linearGradient><linearGradient id="ch" x1="50.25" x2="51" y1="44.36" y2="44.36" xlink:href="#a"></linearGradient><linearGradient id="cf" x1="63.92" x2="64.67" y1="32.83" y2="32.83" xlink:href="#a"></linearGradient><linearGradient id="ce" x1="65.13" x2="65.89" y1="21.28" y2="21.28" xlink:href="#a"></linearGradient><linearGradient id="cd" x1="59.94" x2="60.69" y1="28.6" y2="28.6" xlink:href="#a"></linearGradient><linearGradient id="cc" x1="18.72" x2="19.34" y1="52.07" y2="52.07" xlink:href="#a"></linearGradient><linearGradient id="cb" x1="56.33" x2="57.33" y1="42.11" y2="42.11" xlink:href="#a"></linearGradient><linearGradient id="ca" x1="69.8" x2="70.79" y1="20.43" y2="20.43" xlink:href="#a"></linearGradient><linearGradient id="bz" x1="67.48" x2="68.22" y1="17.39" y2="17.39" xlink:href="#a"></linearGradient><linearGradient id="by" x1="39.27" x2="39.78" y1="9.03" y2="9.03" xlink:href="#a"></linearGradient><linearGradient id="bx" x1="29.26" x2="29.55" y1="12.13" y2="12.13" xlink:href="#a"></linearGradient><linearGradient id="bw" x1="40.26" x2="40.56" y1="11.82" y2="11.82" xlink:href="#a"></linearGradient><linearGradient id="bu" x1="35.8" x2="36.09" y1="9.99" y2="9.99" xlink:href="#a"></linearGradient><linearGradient id="bt" x1="67.38" x2="68.13" y1="25.92" y2="25.92" xlink:href="#a"></linearGradient><linearGradient id="bs" x1="53.53" x2="54.9" y1="44.91" y2="44.91" xlink:href="#a"></linearGradient><linearGradient id="br" x1="10.82" x2="11.43" y1="49.89" y2="49.89" xlink:href="#a"></linearGradient><linearGradient id="bq" x1="49.8" x2="50.5" y1="39.28" y2="39.28" xlink:href="#a"></linearGradient><linearGradient id="bp" x1="54.51" x2="55.21" y1="40.45" y2="40.45" xlink:href="#a"></linearGradient><linearGradient id="bo" x1="56" x2="56.7" y1="35.86" y2="35.86" xlink:href="#a"></linearGradient><linearGradient id="bn" x1="22.53" x2="23.03" y1="49.6" y2="49.6" xlink:href="#a"></linearGradient><linearGradient id="bm" x1="17.05" x2="17.55" y1="49.16" y2="49.16" xlink:href="#a"></linearGradient><linearGradient id="bl" x1="27.5" x2="28" y1="50.07" y2="50.07" xlink:href="#a"></linearGradient><linearGradient id="bj" x1="29.73" x2="30.49" y1="47.17" y2="47.17" xlink:href="#a"></linearGradient><linearGradient id="bi" x1="56.19" x2="56.95" y1="14.95" y2="14.95" xlink:href="#a"></linearGradient><linearGradient id="bh" x1="40.78" x2="41.54" y1="8.68" y2="8.68" xlink:href="#a"></linearGradient><linearGradient id="bg" x1="49.49" x2="50.04" y1="39.85" y2="39.85" xlink:href="#a"></linearGradient><linearGradient id="bf" x1="61.54" x2="62.08" y1="25.83" y2="25.83" xlink:href="#a"></linearGradient><linearGradient id="be" x1="45.76" x2="46.17" y1="42.16" y2="42.16" xlink:href="#a"></linearGradient><linearGradient id="bd" x1="50.92" x2="51.85" y1="38.84" y2="38.84" xlink:href="#a"></linearGradient><linearGradient id="bc" x1="58.96" x2="59.77" y1="33.03" y2="33.03" xlink:href="#a"></linearGradient><linearGradient id="bb" x1="57.77" x2="58.7" y1="29.93" y2="29.93" xlink:href="#a"></linearGradient><linearGradient id="ba" x1="61.59" x2="62.52" y1="22.79" y2="22.79" xlink:href="#a"></linearGradient><linearGradient id="ay" x1="37.32" x2="37.85" y1="48.72" y2="48.72" xlink:href="#a"></linearGradient><linearGradient id="ax" x1="47.97" x2="48.5" y1="43.91" y2="43.91" xlink:href="#a"></linearGradient><radialGradient id="c" cx="25.63" cy="28.1" r=".63" gradientUnits="userSpaceOnUse"><stop stop-color="#f8fdfe" offset="0"></stop><stop stop-color="#f4fcfe" offset=".27"></stop><stop stop-color="#e9f8fd" offset=".51"></stop><stop stop-color="#d7f1fc" offset=".74"></stop><stop stop-color="#bde7fa" offset=".97"></stop><stop stop-color="#b9e6fa" offset="1"></stop></radialGradient><radialGradient id="i" cx="36.09" cy="28.9" r=".39" xlink:href="#c"></radialGradient><radialGradient id="h" cx="25.87" cy="26.66" r=".39" xlink:href="#c"></radialGradient><radialGradient id="g" cx="43.75" cy="23.77" r=".39" xlink:href="#c"></radialGradient><radialGradient id="f" cx="42.99" cy="24.93" r=".27" xlink:href="#c"></radialGradient><radialGradient id="e" cx="31.07" cy="22.37" r=".22" xlink:href="#c"></radialGradient><radialGradient id="d" cx="36.19" cy="19.42" r=".29" xlink:href="#c"></radialGradient><linearGradient id="aw" x1="54.01" x2="60.23" y1="11.8" y2="11.8" gradientTransform="translate(63.23 -46.21) rotate(84.34)" xlink:href="#a"></linearGradient><linearGradient id="j" x1="58.06" x2="59.84" y1="9.56" y2="9.56" gradientUnits="userSpaceOnUse"><stop stop-color="#87d0cb" offset="0"></stop><stop stop-color="#82c9c8" offset=".14"></stop><stop stop-color="#75b5c1" offset=".35"></stop><stop stop-color="#5f95b4" offset=".59"></stop><stop stop-color="#4168a3" offset=".87"></stop><stop stop-color="#315099" offset="1"></stop></linearGradient><linearGradient id="q" x1="4.49" x2="7.53" y1="38.98" y2="38.98" xlink:href="#b"></linearGradient></defs><g class="cls-1"><g data-name="Layer 1"><g class="cls-2"><path class="cls-3" d="M21.38,27.6C21,23.25,27,18.2,34.74,15.8c6.92-2.15,14.13-1.88,17.5.75-3-3.8-11.75-4.37-20.14-1.77s-15.36,8.13-15.3,13c.09,5.57,9.16,8.1,20.45,4.83C28.54,34.25,21.79,32,21.38,27.6Z"></path></g><g class="cls-2"><path class="cls-3" d="M12.08,30.45c-.57-7.32,9.59-15.71,22.45-19.67C46,7.24,57.92,7.7,63.58,12,58.57,5.78,44,4.85,30.17,9.1,16.05,13.43,4.42,22.57,4.38,30.66c0,9.47,15.27,13.79,34.39,8.19C24,41.74,12.67,38,12.08,30.45Z"></path></g><g class="cls-2"><path class="cls-3" d="M57.68,18c4.93,7.51-4.48,19.3-22.22,25.08-16.3,5.3-30.07,2.35-32.31-5.33-.1,11.31,17.53,16.7,39,9.63,21.08-6.93,31.15-21.09,24.38-29.84-5.4-7-20.28-8.4-34.55-4.32C43.23,10.87,54,12.46,57.68,18Z"></path></g><g class="cls-2"><path class="cls-3" d="M46,19.66c1.73,2.71-1.72,6.89-8,8.89-5.72,1.83-10.6.81-11.48-1.86.11,3.91,6.33,5.75,13.86,3.35s11.23-7.39,8.88-10.55c-1.9-2.56-7.34-3.08-12.55-1.58C40.74,17,44.67,17.62,46,19.66Z"></path></g><g class="cls-2"><path class="cls-4" d="M8.32,31.11c.39,5.59,7,9,16.62,9.11-9-.37-15.19-3.87-15.6-9.34-.43-5.81,5.9-12.3,14.94-16.71C14.73,18.56,7.92,25.21,8.32,31.11Z"></path><path class="cls-4" d="m18.89 27.93c0.26 3.16 4 5.1 9.5 5.14-5.14-0.21-8.65-2.18-8.93-5.28-0.29-3.31 3.28-7 8.47-9.59-5.48 2.54-9.33 6.37-9.04 9.73z"></path><path class="cls-4" d="M31.74,10C40,7.38,48.41,6.64,55,7.76c-6.57-1.55-15.5-.94-24.2,1.82C17,13.94,5.65,23.13,5.62,31.23a8.32,8.32,0,0,0,.13,1.51c0-.11,0-.21,0-.32C5.77,24,17.5,14.51,31.74,10Z"></path><path class="cls-4" d="m32.81 15.33c5.37-1.82 10.89-2.22 14.87-1.15-3.84-1.4-9.68-1.18-15.25 0.82-7.18 2.44-13.12 7.24-14.09 11.72 1.58-4.46 7.46-9.01 14.47-11.39z"></path><path class="cls-4" d="M63.77,17.49C61.38,14,56,12.12,49.47,11.93c5.92.46,10.76,2.37,13,5.75,3.92,5.89-1,14.41-11.87,20.6C62.32,32.12,67.76,23.4,63.77,17.49Z"></path><path class="cls-4" d="m40.31 45.37c-10.14 3.43-19.51 4.07-26.62 2.56 7 2.15 16.91 1.83 27.76-1.85 16.55-5.6 26.11-15.88 25.76-24.19-0.94 8.31-10.77 18.02-26.9 23.48z"></path><path class="cls-4" d="m48.37 19.28c1.31 3.21-2.32 7.75-9.07 10-4.27 1.45-8.12 1.42-10.61 0.36 2.37 1.38 6.48 1.57 11.1 0 7.02-2.33 10.59-7.2 8.58-10.36z"></path></g><path class="cls-4" d="M55.58,19.84l-.09-.21c1.07,5.63-4.66,13-14.16,17.62C51.75,33.11,58,25.58,55.58,19.84Z"></path><path class="cls-5" d="M19.06,39.47a.17.17,0,0,1-.17.16.16.16,0,0,1,0-.32A.17.17,0,0,1,19.06,39.47Z"></path><path class="cls-6" d="M33.47,47.77a.38.38,0,1,1-.38-.38A.38.38,0,0,1,33.47,47.77Z"></path><path class="cls-7" d="M42.15,46a.5.5,0,1,1-.49-.49A.49.49,0,0,1,42.15,46Z"></path><path class="cls-8" d="M64.38,24.78a.5.5,0,1,1-.5-.5A.49.49,0,0,1,64.38,24.78Z"></path><path class="cls-9" d="M11.4,33.51a.5.5,0,1,1-.5-.5A.49.49,0,0,1,11.4,33.51Z"></path><path class="cls-10" d="M10.05,36.4a.28.28,0,1,1-.28-.28A.28.28,0,0,1,10.05,36.4Z"></path><path class="cls-11" d="M12.62,29.55a.37.37,0,0,1-.37.37.36.36,0,0,1-.37-.37.37.37,0,0,1,.37-.37A.38.38,0,0,1,12.62,29.55Z"></path><path class="cls-12" d="M11.89,31.34a.23.23,0,0,1-.46,0,.23.23,0,1,1,.46,0Z"></path><path class="cls-13" d="M14.07,31.17a.23.23,0,1,1-.23-.23A.23.23,0,0,1,14.07,31.17Z"></path><path class="cls-14" d="M16.17,26.47a.25.25,0,1,1-.25-.25A.25.25,0,0,1,16.17,26.47Z"></path><path class="cls-15" d="M48.3,42a.5.5,0,1,1-.49-.5A.49.49,0,0,1,48.3,42Z"></path><path class="cls-16" d="M62.3,18.67a.43.43,0,1,1-.43-.44A.43.43,0,0,1,62.3,18.67Z"></path><path class="cls-17" d="M43.89,10.76a.3.3,0,1,1-.59,0,.3.3,0,1,1,.59,0Z"></path><path class="cls-18" d="M45.79,9.92a.3.3,0,1,1-.3-.3A.29.29,0,0,1,45.79,9.92Z"></path><path class="cls-19" d="M50.11,10.67a.25.25,0,1,1-.25-.25A.25.25,0,0,1,50.11,10.67Z"></path><path class="cls-20" d="M46.4,11.94a.14.14,0,0,1-.14.14.14.14,0,1,1,0-.28A.14.14,0,0,1,46.4,11.94Z"></path><path class="cls-21" d="M38.7,11.85a.14.14,0,1,1-.14-.14A.14.14,0,0,1,38.7,11.85Z"></path><path class="cls-22" d="M36.69,12.12a.14.14,0,1,1-.28,0,.14.14,0,1,1,.28,0Z"></path><path class="cls-23" d="M51.38,41.47a.37.37,0,1,1-.36-.36A.36.36,0,0,1,51.38,41.47Z"></path><path class="cls-24" d="M56.57,37.53a.37.37,0,1,1-.36-.36A.36.36,0,0,1,56.57,37.53Z"></path><circle class="cls-25" cx="58.76" cy="35.82" r=".5"></circle><path class="cls-26" d="M61.94,32.62a.34.34,0,0,1-.68,0,.34.34,0,0,1,.68,0Z"></path><path class="cls-27" d="M52.93,26.84a.3.3,0,1,1-.6,0,.3.3,0,0,1,.6,0Z"></path><path class="cls-28" d="M53.51,21a.24.24,0,0,1-.24.24.24.24,0,0,1,0-.48A.24.24,0,0,1,53.51,21Z"></path><path class="cls-29" d="M53.73,25.56a.45.45,0,0,1-.89,0,.45.45,0,0,1,.89,0Z"></path><path class="cls-30" d="M54,22.56a.45.45,0,1,1-.44-.44A.45.45,0,0,1,54,22.56Z"></path><path class="cls-31" d="M54.86,21.63a.45.45,0,0,1-.89,0,.45.45,0,0,1,.89,0Z"></path><path class="cls-32" d="M56.57,23.07a.34.34,0,0,1-.34.34.35.35,0,0,1-.34-.34.34.34,0,0,1,.34-.34A.34.34,0,0,1,56.57,23.07Z"></path><path class="cls-33" d="M47.65,33a.27.27,0,1,1-.27-.27A.27.27,0,0,1,47.65,33Z"></path><path class="cls-34" d="M51.15,28.06a.22.22,0,1,1-.22-.22A.21.21,0,0,1,51.15,28.06Z"></path><path class="cls-35" d="M54.56,27.33a.22.22,0,1,1-.22-.22A.22.22,0,0,1,54.56,27.33Z"></path><path class="cls-36" d="M44.24,35.8a.22.22,0,1,1-.22-.22A.22.22,0,0,1,44.24,35.8Z"></path><path class="cls-37" d="M42,37.23a.18.18,0,0,1-.17.17.17.17,0,0,1-.16-.17.16.16,0,0,1,.16-.16A.17.17,0,0,1,42,37.23Z"></path><path class="cls-38" d="M9.78,31.62a.44.44,0,1,1-.44-.44A.44.44,0,0,1,9.78,31.62Z"></path><path class="cls-39" d="M12.37,26.23a.22.22,0,1,1-.44,0,.22.22,0,0,1,.44,0Z"></path><path class="cls-40" d="M47.24,44.73a.47.47,0,1,1-.47-.47A.47.47,0,0,1,47.24,44.73Z"></path><path class="cls-41" d="M40.09,44.8a.47.47,0,0,1-.93,0,.47.47,0,1,1,.93,0Z"></path><path class="cls-42" d="M13.06,35.56a.35.35,0,0,1-.69,0,.35.35,0,1,1,.69,0Z"></path><path class="cls-43" d="M9.3,34.33a.29.29,0,0,1-.28.28.28.28,0,0,1-.28-.28A.27.27,0,0,1,9,34.05.28.28,0,0,1,9.3,34.33Z"></path><path class="cls-44" d="M15.53,40.12a.16.16,0,0,1-.16.16.17.17,0,0,1-.17-.16.18.18,0,0,1,.17-.17A.17.17,0,0,1,15.53,40.12Z"></path><path class="cls-45" d="M11.51,38.55a.22.22,0,1,1-.44,0,.22.22,0,0,1,.44,0Z"></path><path class="cls-46" d="M8.25,35.76a.37.37,0,0,1-.37.36.36.36,0,0,1,0-.72A.37.37,0,0,1,8.25,35.76Z"></path><path class="cls-47" d="M8.77,35.59a.16.16,0,1,1-.31,0,.16.16,0,0,1,.16-.16A.16.16,0,0,1,8.77,35.59Z"></path><path class="cls-48" d="M7,30.06a.22.22,0,0,1-.23.22.22.22,0,0,1,0-.44A.22.22,0,0,1,7,30.06Z"></path><path class="cls-49" d="M11.16,23.4a.22.22,0,0,1-.22.22.23.23,0,1,1,.22-.22Z"></path><path class="cls-50" d="M14.2,23.57a.17.17,0,1,1-.34,0,.17.17,0,0,1,.34,0Z"></path><path class="cls-51" d="M12.64,25.11a.23.23,0,1,1-.23-.23A.23.23,0,0,1,12.64,25.11Z"></path><path class="cls-52" d="M10.15,29.05a.23.23,0,0,1-.46,0,.23.23,0,0,1,.46,0Z"></path><path class="cls-53" d="M17.6,19.77a.17.17,0,0,1-.17.17.18.18,0,0,1-.17-.17.17.17,0,0,1,.17-.17A.16.16,0,0,1,17.6,19.77Z"></path><path class="cls-54" d="M15.84,20.17a.17.17,0,0,1-.18.17.17.17,0,0,1-.17-.17.18.18,0,0,1,.17-.17A.18.18,0,0,1,15.84,20.17Z"></path><path class="cls-55" d="M8,25.39a.16.16,0,0,1-.17.17.17.17,0,0,1-.17-.17.18.18,0,0,1,.17-.17A.17.17,0,0,1,8,25.39Z"></path><path class="cls-56" d="M15.26,21.81a.18.18,0,0,1-.18.17.18.18,0,0,1-.17-.17.18.18,0,0,1,.17-.18A.18.18,0,0,1,15.26,21.81Z"></path><path class="cls-57" d="M5.46,33.2a.22.22,0,1,1-.44,0,.22.22,0,1,1,.44,0Z"></path><path class="cls-58" d="M20.46,42a.17.17,0,0,1-.17.16.17.17,0,0,1-.16-.16.17.17,0,1,1,.33,0Z"></path><path class="cls-59" d="M42.78,42.72a.39.39,0,1,1-.77,0,.39.39,0,0,1,.77,0Z"></path><path class="cls-60" d="M48.51,40a.47.47,0,1,1-.47-.46A.47.47,0,0,1,48.51,40Z"></path><path class="cls-61" d="M46.26,47.38a.46.46,0,1,1-.46-.46A.46.46,0,0,1,46.26,47.38Z"></path><path class="cls-62" d="M39.24,51.68a.35.35,0,1,1-.35-.35A.35.35,0,0,1,39.24,51.68Z"></path><path class="cls-63" d="M52.23,50.5a.22.22,0,1,1-.22-.22A.22.22,0,0,1,52.23,50.5Z"></path><circle class="cls-64" cx="64.05" cy="37.07" r=".22"></circle><circle class="cls-65" cx="38.07" cy="9.26" r=".22"></circle><path class="cls-66" d="M66.79,35.65a.35.35,0,1,1-.35-.34A.35.35,0,0,1,66.79,35.65Z"></path><path class="cls-67" d="M30.44,54.67a.35.35,0,1,1-.69,0,.35.35,0,1,1,.69,0Z"></path><path class="cls-68" d="M51,44.36a.38.38,0,1,1-.37-.38A.38.38,0,0,1,51,44.36Z"></path><path class="cls-69" d="M64.67,32.83a.38.38,0,1,1-.37-.38A.38.38,0,0,1,64.67,32.83Z"></path><path class="cls-70" d="M65.89,21.28a.38.38,0,1,1-.38-.38A.38.38,0,0,1,65.89,21.28Z"></path><path class="cls-71" d="M60.69,28.6a.38.38,0,0,1-.75,0,.38.38,0,1,1,.75,0Z"></path><path class="cls-72" d="M19.34,52.07a.31.31,0,1,1-.31-.31A.31.31,0,0,1,19.34,52.07Z"></path><path class="cls-73" d="M57.33,42.11a.5.5,0,0,1-.5.5.5.5,0,1,1,.5-.5Z"></path><path class="cls-74" d="M70.79,20.43a.5.5,0,1,1-.5-.5A.5.5,0,0,1,70.79,20.43Z"></path><path class="cls-75" d="M68.22,17.39a.37.37,0,1,1-.37-.37A.36.36,0,0,1,68.22,17.39Z"></path><path class="cls-76" d="M39.78,9a.26.26,0,1,1-.25-.25A.25.25,0,0,1,39.78,9Z"></path><path class="cls-77" d="M29.55,12.13a.15.15,0,0,1-.14.15.15.15,0,1,1,0-.3A.15.15,0,0,1,29.55,12.13Z"></path><path class="cls-78" d="M40.56,11.82a.15.15,0,1,1-.15-.15A.15.15,0,0,1,40.56,11.82Z"></path><path class="cls-79" d="M36.09,10a.15.15,0,0,1-.14.15.15.15,0,1,1,0-.3A.15.15,0,0,1,36.09,10Z"></path><path class="cls-80" d="M68.13,25.92a.38.38,0,1,1-.75,0,.38.38,0,0,1,.75,0Z"></path><path class="cls-81" d="M54.9,44.91a.69.69,0,0,1-.69.69.68.68,0,0,1-.68-.69.67.67,0,0,1,.68-.68A.68.68,0,0,1,54.9,44.91Z"></path><path class="cls-82" d="M11.43,49.89a.31.31,0,0,1-.31.31.3.3,0,0,1-.3-.31.29.29,0,0,1,.3-.3A.3.3,0,0,1,11.43,49.89Z"></path><path class="cls-83" d="M50.5,39.28a.35.35,0,0,1-.7,0,.35.35,0,0,1,.7,0Z"></path><path class="cls-84" d="M55.21,40.45a.35.35,0,1,1-.7,0,.35.35,0,0,1,.7,0Z"></path><path class="cls-85" d="M56.7,35.86a.35.35,0,1,1-.35-.35A.35.35,0,0,1,56.7,35.86Z"></path><path class="cls-86" d="M23,49.6a.25.25,0,1,1-.25-.25A.25.25,0,0,1,23,49.6Z"></path><path class="cls-87" d="M17.55,49.16a.25.25,0,1,1-.25-.25A.25.25,0,0,1,17.55,49.16Z"></path><path class="cls-88" d="M28,50.07a.25.25,0,1,1-.5,0,.25.25,0,1,1,.5,0Z"></path><path class="cls-89" d="M30.49,47.17a.38.38,0,1,1-.38-.38A.38.38,0,0,1,30.49,47.17Z"></path><path class="cls-90" d="M57,15a.38.38,0,1,1-.38-.38A.38.38,0,0,1,57,15Z"></path><path class="cls-91" d="M41.54,8.68a.38.38,0,1,1-.38-.38A.38.38,0,0,1,41.54,8.68Z"></path><path class="cls-92" d="M50,39.85a.28.28,0,1,1-.28-.27A.27.27,0,0,1,50,39.85Z"></path><path class="cls-93" d="M62.08,25.83a.27.27,0,1,1-.54,0,.27.27,0,0,1,.54,0Z"></path><path class="cls-94" d="M46.17,42.16a.21.21,0,0,1-.21.2.2.2,0,0,1-.2-.2A.21.21,0,0,1,46,42,.22.22,0,0,1,46.17,42.16Z"></path><path class="cls-95" d="M51.85,38.84a.47.47,0,1,1-.47-.46A.47.47,0,0,1,51.85,38.84Z"></path><path class="cls-96" d="M59.77,33A.41.41,0,1,1,59,33a.41.41,0,1,1,.81,0Z"></path><path class="cls-97" d="M58.7,29.93a.46.46,0,0,1-.46.46.47.47,0,1,1,0-.93A.46.46,0,0,1,58.7,29.93Z"></path><path class="cls-98" d="M62.52,22.79a.47.47,0,1,1-.46-.47A.47.47,0,0,1,62.52,22.79Z"></path><path class="cls-99" d="M37.85,48.72a.27.27,0,0,1-.53,0,.27.27,0,1,1,.53,0Z"></path><path class="cls-100" d="M48.5,43.91a.27.27,0,1,1-.27-.27A.27.27,0,0,1,48.5,43.91Z"></path><path class="cls-101" d="M26.25,28.1a.63.63,0,1,1-.62-.63A.63.63,0,0,1,26.25,28.1Z"></path><path class="cls-102" d="M36.48,28.9a.39.39,0,1,1-.39-.39A.39.39,0,0,1,36.48,28.9Z"></path><path class="cls-103" d="M26.25,26.65a.39.39,0,1,1-.38-.38A.38.38,0,0,1,26.25,26.65Z"></path><path class="cls-104" d="M44.14,23.77a.39.39,0,1,1-.39-.39A.38.38,0,0,1,44.14,23.77Z"></path><path class="cls-105" d="M43.26,24.93a.27.27,0,1,1-.27-.27A.27.27,0,0,1,43.26,24.93Z"></path><circle class="cls-106" cx="31.07" cy="22.37" r=".22"></circle><path class="cls-107" d="M36.48,19.42a.29.29,0,1,1-.29-.29A.29.29,0,0,1,36.48,19.42Z"></path><circle class="cls-108" transform="translate(39.75 67.48) rotate(-84.34)" cx="57.12" cy="11.8" r="3.11"></circle><path class="cls-109" d="M57.68,8.73a3,3,0,0,1-.67.56,4.84,4.84,0,0,1-1.44.58c-.35.09-.7.15-1,.22a2.94,2.94,0,0,0-.44,1.06A9,9,0,0,0,58.6,9.06,3,3,0,0,0,57.68,8.73Z"></path><path class="cls-110" d="M55,14.07l.94-.24a22.14,22.14,0,0,0,4.2-1.26,3.19,3.19,0,0,0,.09-.77c0-.11,0-.21,0-.32-.32.13-.64.25-1,.35a29,29,0,0,1-3.74,1L54.27,13A3.12,3.12,0,0,0,55,14.07Z"></path><path class="cls-109" d="M58.35,14.06c.4-.12.81-.22,1.21-.33a3.25,3.25,0,0,0,.41-.67l-1.68.41c-1,.25-2,.52-3,.83a3,3,0,0,0,1.2.54A8.79,8.79,0,0,1,58.35,14.06Z"></path><path class="cls-110" d="M54.8,12.81a24.94,24.94,0,0,0,3.27-1.06A9.65,9.65,0,0,0,60,10.6a3.22,3.22,0,0,0-.5-.81,5.93,5.93,0,0,1-.68.31,21.52,21.52,0,0,1-3.24.87l-1.53.33a2.74,2.74,0,0,0,0,.5A3.19,3.19,0,0,0,54.23,13Z"></path><path class="cls-111" d="M59.84,9.56A.89.89,0,1,1,59,8.67.89.89,0,0,1,59.84,9.56Z"></path><circle class="cls-112" cx="6.01" cy="38.98" r="1.52"></circle></g></g></g></svg>