<svg viewBox="0 0 192 192" xmlns="http://www.w3.org/2000/svg" width="192" height="192"><g transform="rotate(0 3.14 2.18) translate(11.466195164881071 37.014189515050354) scale(3.0056463941375617)"><defs><style>.cls-1{fill:#efcf33;}.cls-2,.cls-3{fill:#aa0096;}.cls-3{stroke:#000;stroke-width:2.81px;}.cls-3,.cls-5{stroke-linecap:round;stroke-miterlimit:10;}.cls-4{fill:#fff;opacity:0.2;}.cls-5{fill:none;stroke:#efcf33;stroke-width:0.72px;stroke-dasharray:0 1.39;}</style></defs><path class="cls-1" d="M6.75,16.08V11.64L10.4,9,6.34,5.57,7,4.81a7.16,7.16,0,0,1,6.1-3c3.33,0,5.74,2.08,5.74,5a4.94,4.94,0,0,1-2.22,4.19h2.34v5.15Zm6-8.88c-.24,0-.62.14-1.6,1.18l-.34.36,1.39-1a2.12,2.12,0,0,0,.59-.55Z"></path><path class="cls-1" d="M24.59,16.34c-3.94,0-6.79-3.05-6.79-7.26,0-3.66,2.34-7.33,6.83-7.33,3.93,0,6.79,3.06,6.79,7.26C31.42,12.67,29.07,16.34,24.59,16.34Zm0-9.09c-.52,0-.79.89-.79,1.76,0,1.06.35,1.83.83,1.83s.79-.88.79-1.76C25.42,8,25.06,7.25,24.59,7.25Z"></path><polygon class="cls-1" points="32.2 16.08 32.2 7.7 30.5 8.08 29.31 3.2 33.98 1.93 38.17 1.93 38.17 16.08"></polygon><path class="cls-1" d="M43.71,16.31c-3.69,0-6.26-1.88-6.26-4.56a3.79,3.79,0,0,1,1.38-3,3.66,3.66,0,0,1-1-2.52c0-2.61,2.41-4.41,5.85-4.41s5.84,1.8,5.84,4.38a3.71,3.71,0,0,1-1,2.55,3.77,3.77,0,0,1,1.39,3C50,14.43,47.39,16.31,43.71,16.31Zm0-5.21c-.2,0-.4.06-.4.17s.28.24.4.24.39-.08.39-.2S43.9,11.1,43.71,11.1Zm0-4.57c-.17,0-.26.07-.26.14s0,.21.26.21S44,6.75,44,6.7,43.88,6.53,43.71,6.53Z"></path><path class="cls-2" d="M7.75,12.15l5-3.59c.76-.53,1.05-1,1.05-1.46s-.39-.9-1.08-.9-1.33.43-2.33,1.5L7.73,5.44a6.17,6.17,0,0,1,5.33-2.65c2.76,0,4.74,1.65,4.74,4v0c0,1.85-1,2.85-2.43,3.78l-2.15,1.38h4.7v3.15H7.75Z"></path><path class="cls-2" d="m18.8 9.08c0-3.33 2.17-6.3 5.83-6.3s5.79 2.9 5.79 6.22-2.17 6.29-5.83 6.29-5.79-2.88-5.79-6.21zm7.62 0c0-1.66-0.74-2.8-1.83-2.8s-1.79 1.08-1.79 2.72c0 1.65 0.74 2.79 1.83 2.79s1.79-1.05 1.79-2.71z"></path><path class="cls-2" d="M33.2,6.46l-2,.43-.73-3,3.61-1h3.05V15.08h-4Z"></path><path class="cls-2" d="m38.45 11.75a3 3 0 0 1 2.17-2.9 2.9 2.9 0 0 1-1.76-2.65c0-2 2-3.38 4.85-3.38s4.84 1.39 4.84 3.38a2.89 2.89 0 0 1-1.76 2.62 3 3 0 0 1 2.21 2.9c0 2.11-2.14 3.56-5.26 3.56s-5.29-1.44-5.29-3.53zm6.65-0.44a1.42 1.42 0 0 0-2.79 0 1.41 1.41 0 0 0 2.79 0zm-0.1-4.61a1.27 1.27 0 0 0-2.52 0 1.26 1.26 0 0 0 2.52 0z"></path><circle class="cls-3" cx="14.19" cy="26.12" r="10.29"></circle><circle class="cls-3" cx="42.51" cy="26.12" r="10.29"></circle><path class="cls-4" d="m6.93 33.41a10.29 10.29 0 0 1 14.55-14.55z"></path><path class="cls-4" d="m35.18 33.41a10.29 10.29 0 0 1 14.55-14.55z"></path><path d="m31 26.76a4.85 4.85 0 0 0-5.32 0l-1.54-2.35a7.67 7.67 0 0 1 8.4 0z"></path><path class="cls-1" d="M14.18,36.41a.39.39,0,0,1,.37-.39h0a.37.37,0,0,1,.38.36h0a.37.37,0,0,1-.36.39h0A.38.38,0,0,1,14.18,36.41Zm-1.09.31a.37.37,0,0,1-.34-.41h0a.37.37,0,0,1,.41-.33h0a.37.37,0,0,1,.34.41h0a.37.37,0,0,1-.37.33h0Zm2.53-.41a.38.38,0,0,1,.31-.44h0a.36.36,0,0,1,.42.3h0a.36.36,0,0,1-.3.43H16A.36.36,0,0,1,15.62,36.31Zm-4,.16h0a.39.39,0,0,1-.27-.46h0a.37.37,0,0,1,.45-.27h0a.37.37,0,0,1,.28.45h0a.38.38,0,0,1-.36.29h-.1ZM17,36a.37.37,0,0,1,.24-.47h0a.37.37,0,0,1,.47.24h0a.37.37,0,0,1-.24.47h0a.23.23,0,0,1-.11,0h0A.38.38,0,0,1,17,36Zm-6.8,0a.38.38,0,0,1-.22-.49h0a.39.39,0,0,1,.49-.21h0a.39.39,0,0,1,.21.49h0a.38.38,0,0,1-.35.24h0A.25.25,0,0,1,10.22,36Zm8.15-.48a.37.37,0,0,1,.17-.51h0a.38.38,0,0,1,.5.18h0a.38.38,0,0,1-.17.5h0a.53.53,0,0,1-.17,0h0A.36.36,0,0,1,18.37,35.53Zm-9.5-.17a.39.39,0,0,1-.14-.52h0a.38.38,0,0,1,.52-.13h0a.36.36,0,0,1,.13.51h0a.37.37,0,0,1-.32.19h0A.41.41,0,0,1,8.87,35.36Zm10.76-.51a.38.38,0,0,1,.1-.52h0a.38.38,0,0,1,.53.1h0a.37.37,0,0,1-.11.52h0a.31.31,0,0,1-.21.07h0A.37.37,0,0,1,19.63,34.85Zm-12-.32h0A.38.38,0,0,1,7.57,34h0a.37.37,0,0,1,.53-.06h0a.39.39,0,0,1,.08.52h0a.42.42,0,0,1-.31.15h0A.43.43,0,0,1,7.64,34.53ZM20.8,34a.39.39,0,0,1,0-.53h0a.37.37,0,0,1,.53,0h0a.37.37,0,0,1,0,.53h0a.38.38,0,0,1-.25.09h0A.36.36,0,0,1,20.8,34ZM6.53,33.53a.38.38,0,0,1,0-.53h0a.38.38,0,0,1,.53,0h0a.36.36,0,0,1,0,.53h0a.36.36,0,0,1-.26.11h0A.37.37,0,0,1,6.53,33.53ZM21.83,33a.39.39,0,0,1,0-.53h0a.38.38,0,0,1,.53,0h0a.38.38,0,0,1,.05.53h0a.37.37,0,0,1-.29.13h0A.36.36,0,0,1,21.83,33ZM5.58,32.4a.37.37,0,0,1,.08-.53h0a.38.38,0,0,1,.52.08h0a.38.38,0,0,1-.08.53h0a.34.34,0,0,1-.22.07h0A.36.36,0,0,1,5.58,32.4Zm17.14-.52a.36.36,0,0,1-.12-.51h0a.37.37,0,0,1,.52-.12h0a.37.37,0,0,1,.12.52h0a.37.37,0,0,1-.32.18h0A.31.31,0,0,1,22.72,31.88ZM4.79,31.14a.38.38,0,0,1,.15-.51h0a.38.38,0,0,1,.51.15h0a.38.38,0,0,1-.16.51h0a.34.34,0,0,1-.17.05h0A.35.35,0,0,1,4.79,31.14Zm18.64-.5a.37.37,0,0,1-.19-.49h0a.38.38,0,0,1,.5-.19h0a.37.37,0,0,1,.19.49h0a.38.38,0,0,1-.34.23h0A.32.32,0,0,1,23.43,30.64ZM4.18,29.78h0a.39.39,0,0,1,.22-.48h0a.37.37,0,0,1,.48.23h0a.35.35,0,0,1-.22.47h0a.31.31,0,0,1-.13,0h0A.39.39,0,0,1,4.18,29.78ZM24,29.31a.36.36,0,0,1-.25-.46h0a.37.37,0,0,1,.46-.26h0a.39.39,0,0,1,.26.47h0a.38.38,0,0,1-.36.27h0Zm-20.2-1a.36.36,0,0,1,.29-.44h0a.37.37,0,0,1,.44.29h0a.35.35,0,0,1-.28.44H4.13A.37.37,0,0,1,3.77,28.35Zm20.55-.43A.37.37,0,0,1,24,27.5h0a.38.38,0,0,1,.43-.32h0a.39.39,0,0,1,.32.42h0a.39.39,0,0,1-.38.32h-.05Zm-20.76-1a.38.38,0,0,1,.35-.4h0a.38.38,0,0,1,.4.35h0a.36.36,0,0,1-.34.4h0A.37.37,0,0,1,3.56,26.88Zm20.54-.76h0v0h0a.37.37,0,0,1,.37-.38h0a.38.38,0,0,1,.38.37h0a0,0,0,0,1,0,0h0s0,0,0,0h0a.37.37,0,0,1-.38.37h0A.36.36,0,0,1,24.1,26.12ZM3.9,25.8a.37.37,0,0,1-.34-.4h0A.37.37,0,0,1,4,25.05H4a.39.39,0,0,1,.34.4h0a.39.39,0,0,1-.38.35h0ZM24,24.7h0a.37.37,0,0,1,.31-.42h0a.37.37,0,0,1,.43.31h0a.37.37,0,0,1-.31.42h-.06A.36.36,0,0,1,24,24.7ZM4.05,24.37a.37.37,0,0,1-.29-.44h0a.37.37,0,0,1,.44-.29h0a.38.38,0,0,1,.29.44h0a.36.36,0,0,1-.36.3H4.05Zm19.67-1a.35.35,0,0,1,.25-.46h0a.37.37,0,0,1,.46.25h0a.39.39,0,0,1-.25.47h-.12A.34.34,0,0,1,23.72,23.35ZM4.39,23a.39.39,0,0,1-.23-.49h0a.38.38,0,0,1,.48-.22h0a.38.38,0,0,1,.23.48h0a.38.38,0,0,1-.35.25h0Zm18.84-.92h0a.36.36,0,0,1,.2-.49h0a.37.37,0,0,1,.48.19h0a.37.37,0,0,1-.19.5h0a.37.37,0,0,1-.15,0h0A.39.39,0,0,1,23.23,22.06Zm-18.3-.42a.37.37,0,0,1-.16-.5h0a.36.36,0,0,1,.5-.16h0a.37.37,0,0,1,.16.51h0a.4.4,0,0,1-.33.2h0A.34.34,0,0,1,4.93,21.64Zm17.64-.8a.38.38,0,0,1,.12-.52h0a.39.39,0,0,1,.53.12h0a.39.39,0,0,1-.13.51h0a.34.34,0,0,1-.2.06h0A.4.4,0,0,1,22.57,20.84ZM5.64,20.4a.37.37,0,0,1-.09-.52h0a.38.38,0,0,1,.53-.09h0a.38.38,0,0,1,.08.53h0a.37.37,0,0,1-.3.15h0A.34.34,0,0,1,5.64,20.4Zm16.12-.68h0a.36.36,0,0,1,0-.52h0a.37.37,0,0,1,.53,0h0a.37.37,0,0,1,0,.53h0a.34.34,0,0,1-.24.09h0A.37.37,0,0,1,21.76,19.72ZM6.51,19.27a.4.4,0,0,1,0-.54h0a.4.4,0,0,1,.54,0H7a.39.39,0,0,1,0,.53h0a.39.39,0,0,1-.28.12h0A.44.44,0,0,1,6.51,19.27Zm14.28-.54a.39.39,0,0,1,0-.53h0a.38.38,0,0,1,.53,0h0a.36.36,0,0,1,0,.53h0a.36.36,0,0,1-.28.12h0A.35.35,0,0,1,20.79,18.73ZM7.54,18.26a.39.39,0,0,1,.07-.52h0a.38.38,0,0,1,.53.06h0a.39.39,0,0,1-.07.53h0a.38.38,0,0,1-.23.08h0A.38.38,0,0,1,7.54,18.26Zm12.16-.37a.37.37,0,0,1-.1-.52h0a.38.38,0,0,1,.52-.11h0a.37.37,0,0,1,.1.52h0a.37.37,0,0,1-.31.17h0A.39.39,0,0,1,19.7,17.89Zm-11-.47a.39.39,0,0,1,.14-.52h0a.37.37,0,0,1,.51.14h0a.38.38,0,0,1-.13.51h0a.35.35,0,0,1-.2.05H9A.37.37,0,0,1,8.7,17.42Zm9.8-.22h0a.38.38,0,0,1-.17-.5h0a.38.38,0,0,1,.5-.18h0A.38.38,0,0,1,19,17h0a.39.39,0,0,1-.33.21h0A.53.53,0,0,1,18.5,17.2ZM10,16.74a.36.36,0,0,1,.21-.49h0a.37.37,0,0,1,.48.2h0a.38.38,0,0,1-.21.49h0a.32.32,0,0,1-.14,0h0A.36.36,0,0,1,10,16.74Zm7.25,0h0a.38.38,0,0,1-.24-.48h0a.38.38,0,0,1,.47-.24h0a.37.37,0,0,1,.24.47h0a.38.38,0,0,1-.36.26h-.11Zm-5.91-.45a.38.38,0,0,1,.27-.46h0a.39.39,0,0,1,.46.28h0a.37.37,0,0,1-.28.45h-.08A.38.38,0,0,1,11.31,16.24Zm4.57.12h0a.39.39,0,0,1-.31-.44h0a.38.38,0,0,1,.44-.3h0a.36.36,0,0,1,.3.43h0a.38.38,0,0,1-.37.31h-.06Zm-3.16-.42a.37.37,0,0,1,.33-.42h0a.36.36,0,0,1,.41.33h0a.36.36,0,0,1-.33.41h0A.35.35,0,0,1,12.72,15.94Zm1.79.28a.38.38,0,0,1-.37-.39h0a.37.37,0,0,1,.39-.36h0a.37.37,0,0,1,.36.39h0a.38.38,0,0,1-.38.36Z"></path><path class="cls-1" d="M42.49,36.41a.39.39,0,0,1,.37-.39h0a.37.37,0,0,1,.39.36h0a.37.37,0,0,1-.36.39h0A.39.39,0,0,1,42.49,36.41Zm-1.09.31a.38.38,0,0,1-.34-.41h0a.37.37,0,0,1,.41-.33h0a.37.37,0,0,1,.34.41h0a.37.37,0,0,1-.37.33h0Zm2.53-.41a.36.36,0,0,1,.3-.43h0a.4.4,0,0,1,.45.3h0a.41.41,0,0,1-.32.44h-.07A.38.38,0,0,1,43.93,36.31Zm-4,.16a.38.38,0,0,1-.27-.46h0a.37.37,0,0,1,.45-.27h0a.37.37,0,0,1,.28.45h0a.38.38,0,0,1-.37.29h-.09Zm5.4-.46a.38.38,0,0,1,.24-.47h0a.37.37,0,0,1,.47.24h0a.36.36,0,0,1-.24.47h0a.22.22,0,0,1-.11,0h0A.38.38,0,0,1,45.33,36Zm-6.81,0a.39.39,0,0,1-.21-.49h0a.39.39,0,0,1,.49-.21h0a.39.39,0,0,1,.21.49h0a.38.38,0,0,1-.35.24h0A.32.32,0,0,1,38.52,36Zm8.16-.49a.37.37,0,0,1,.17-.5h0a.37.37,0,0,1,.5.18h0a.38.38,0,0,1-.17.5h0a.47.47,0,0,1-.16,0h0A.37.37,0,0,1,46.68,35.52Zm-9.5-.16a.38.38,0,0,1-.14-.51h0a.38.38,0,0,1,.52-.14h0a.37.37,0,0,1,.13.51h0a.37.37,0,0,1-.32.19h0A.41.41,0,0,1,37.18,35.36Zm10.76-.51a.38.38,0,0,1,.11-.52h0a.36.36,0,0,1,.51.1h0a.37.37,0,0,1-.09.52h0a.35.35,0,0,1-.21.07h0A.39.39,0,0,1,47.94,34.85Zm-12-.32a.38.38,0,0,1-.07-.53h0a.38.38,0,0,1,.53-.06h0a.37.37,0,0,1,.07.52h0a.38.38,0,0,1-.3.15h0A.4.4,0,0,1,36,34.53ZM49.11,34a.38.38,0,0,1,0-.53h0a.37.37,0,0,1,.53,0h0a.37.37,0,0,1,0,.53h0a.38.38,0,0,1-.25.09h0A.36.36,0,0,1,49.11,34Zm-14.27-.48a.38.38,0,0,1,0-.53h0a.38.38,0,0,1,.53,0h0a.38.38,0,0,1,0,.53h0a.35.35,0,0,1-.26.11h0A.39.39,0,0,1,34.84,33.53ZM50.14,33a.38.38,0,0,1,0-.52h0a.38.38,0,0,1,.53-.05h0a.39.39,0,0,1,.06.53h0a.41.41,0,0,1-.3.13h0A.38.38,0,0,1,50.14,33ZM33.89,32.4h0a.37.37,0,0,1,.08-.53h0a.37.37,0,0,1,.52.09h0a.37.37,0,0,1-.08.52h0a.36.36,0,0,1-.22.07h0A.37.37,0,0,1,33.89,32.4ZM51,31.88a.36.36,0,0,1-.11-.51h0a.39.39,0,0,1,.53-.12h0a.38.38,0,0,1,.11.52h0a.37.37,0,0,1-.32.18h0A.39.39,0,0,1,51,31.88ZM33.1,31.14a.38.38,0,0,1,.15-.51h0a.38.38,0,0,1,.51.15h0a.38.38,0,0,1-.16.51h0a.34.34,0,0,1-.17.05h0A.35.35,0,0,1,33.1,31.14Zm18.65-.5a.37.37,0,0,1-.2-.49h0a.38.38,0,0,1,.5-.19h0a.37.37,0,0,1,.19.49h0a.38.38,0,0,1-.34.23h0A.42.42,0,0,1,51.75,30.64Zm-19.26-.86a.38.38,0,0,1,.23-.48h0a.36.36,0,0,1,.47.23h0A.38.38,0,0,1,33,30h0l-.13,0h0A.39.39,0,0,1,32.49,29.78Zm19.79-.47a.36.36,0,0,1-.25-.46h0a.37.37,0,0,1,.46-.26h0a.39.39,0,0,1,.26.47h0a.38.38,0,0,1-.37.28h0Zm-20.2-.95a.37.37,0,0,1,.29-.45h0a.38.38,0,0,1,.44.29h0a.37.37,0,0,1-.29.44h-.08A.36.36,0,0,1,32.08,28.36Zm20.55-.44a.38.38,0,0,1-.32-.42h0a.38.38,0,0,1,.43-.32h0a.38.38,0,0,1,.32.42h0a.38.38,0,0,1-.38.32h0Zm-20.76-1a.38.38,0,0,1,.35-.41h0a.38.38,0,0,1,.4.35h0a.37.37,0,0,1-.35.4h0A.37.37,0,0,1,31.87,26.89Zm20.54-.77h0v0h0a.37.37,0,0,1,.37-.38h0a.39.39,0,0,1,.38.38h0v0h0v0h0a.38.38,0,0,1-.38.38h0A.37.37,0,0,1,52.41,26.12ZM32.22,25.8a.37.37,0,0,1-.35-.4h0a.37.37,0,0,1,.4-.35h0a.36.36,0,0,1,.34.4h0a.37.37,0,0,1-.37.35h0Zm20.09-1.1h0a.38.38,0,0,1,.31-.42h0a.38.38,0,0,1,.43.31h0a.38.38,0,0,1-.32.42h0A.36.36,0,0,1,52.31,24.7Zm-20-.33a.38.38,0,0,1-.29-.44h0a.36.36,0,0,1,.44-.29h0a.37.37,0,0,1,.29.44h0a.37.37,0,0,1-.37.3h-.07Zm19.66-1a.37.37,0,0,1,.25-.46h0a.38.38,0,0,1,.47.25h0a.39.39,0,0,1-.26.47h-.1A.37.37,0,0,1,52,23.35ZM32.7,23a.37.37,0,0,1-.22-.48h0a.38.38,0,0,1,.49-.23h0a.38.38,0,0,1,.21.48h0a.38.38,0,0,1-.36.25h0Zm18.84-.92a.37.37,0,0,1,.19-.5h0a.36.36,0,0,1,.49.19h0a.36.36,0,0,1-.19.49h0a.42.42,0,0,1-.15,0h0A.38.38,0,0,1,51.54,22.06Zm-18.31-.42a.36.36,0,0,1-.15-.5h0a.37.37,0,0,1,.51-.16h0a.38.38,0,0,1,.15.51h0a.38.38,0,0,1-.33.2h0A.41.41,0,0,1,33.23,21.64Zm17.65-.8h0a.37.37,0,0,1,.11-.52h0a.37.37,0,0,1,.52.12h0a.38.38,0,0,1-.12.52h0a.35.35,0,0,1-.2.05h0A.41.41,0,0,1,50.88,20.84ZM34,20.4a.37.37,0,0,1-.09-.52h0a.38.38,0,0,1,.53-.09h0a.39.39,0,0,1,.08.53h0a.36.36,0,0,1-.29.15h0A.35.35,0,0,1,34,20.4Zm16.12-.67h0a.37.37,0,0,1,0-.53h0a.37.37,0,0,1,.53,0h0a.38.38,0,0,1,0,.53h0a.38.38,0,0,1-.25.09h0A.39.39,0,0,1,50.07,19.73Zm-15.24-.47a.37.37,0,0,1,0-.52h0a.37.37,0,0,1,.53,0h0a.39.39,0,0,1,0,.53h0a.39.39,0,0,1-.27.12h0A.36.36,0,0,1,34.83,19.26Zm14.27-.52a.4.4,0,0,1,0-.54h0a.38.38,0,0,1,.53,0h0a.36.36,0,0,1,0,.52h0a.33.33,0,0,1-.28.13h0A.4.4,0,0,1,49.1,18.74Zm-13.24-.48a.35.35,0,0,1,.07-.52h0a.36.36,0,0,1,.51.06h0a.37.37,0,0,1-.06.53h0a.4.4,0,0,1-.23.08h0A.35.35,0,0,1,35.86,18.26ZM48,17.89h0a.38.38,0,0,1-.1-.52h0a.38.38,0,0,1,.52-.11h0a.37.37,0,0,1,.1.52h0a.36.36,0,0,1-.31.17h0A.42.42,0,0,1,48,17.89Zm-11-.48a.38.38,0,0,1,.14-.51h0a.38.38,0,0,1,.51.14h0a.37.37,0,0,1-.14.51h0a.29.29,0,0,1-.18.05h0A.4.4,0,0,1,37,17.41Zm9.8-.21h0a.38.38,0,0,1-.17-.5h0a.37.37,0,0,1,.5-.18h0a.36.36,0,0,1,.17.5h0a.36.36,0,0,1-.33.21h0A.59.59,0,0,1,46.81,17.2Zm-8.54-.46a.38.38,0,0,1,.21-.49h0a.37.37,0,0,1,.49.2h0a.38.38,0,0,1-.21.49h0a.29.29,0,0,1-.14,0h0A.38.38,0,0,1,38.27,16.74Zm7.26-.06a.38.38,0,0,1-.24-.47h0a.38.38,0,0,1,.47-.24h0a.36.36,0,0,1,.24.47h0a.37.37,0,0,1-.35.26h0A.25.25,0,0,1,45.53,16.68Zm-5.91-.44a.38.38,0,0,1,.27-.46h0a.38.38,0,0,1,.46.27h0a.38.38,0,0,1-.27.46H40A.37.37,0,0,1,39.62,16.24Zm4.57.12a.38.38,0,0,1-.31-.44h0a.38.38,0,0,1,.44-.3h0a.37.37,0,0,1,.3.43h0a.38.38,0,0,1-.37.31h-.06ZM41,15.94a.39.39,0,0,1,.34-.42h0a.38.38,0,0,1,.41.34h0a.38.38,0,0,1-.34.41h0A.39.39,0,0,1,41,15.94Zm1.8.28a.39.39,0,0,1-.37-.39h0a.38.38,0,0,1,.39-.36h0a.37.37,0,0,1,.36.39h0a.37.37,0,0,1-.37.36h0Z"></path><path class="cls-1" d="M15.6,13.34A.36.36,0,0,1,16,13h0a.36.36,0,0,1,.35.36h0a.36.36,0,0,1-.35.36h0A.36.36,0,0,1,15.6,13.34Zm-1.38,0a.35.35,0,0,1,.35-.36h0a.36.36,0,0,1,.36.36h0a.36.36,0,0,1-.36.36h0A.35.35,0,0,1,14.22,13.34Zm-1.4,0a.36.36,0,0,1,.36-.36h0a.36.36,0,0,1,.36.36h0a.36.36,0,0,1-.36.36h0A.36.36,0,0,1,12.82,13.34Zm-1.39,0a.36.36,0,0,1,.36-.36h0a.36.36,0,0,1,.36.36h0a.36.36,0,0,1-.36.36h0A.36.36,0,0,1,11.43,13.34Zm-1.39,0A.37.37,0,0,1,10.4,13h0a.36.36,0,0,1,.36.36h0a.36.36,0,0,1-.36.36h0A.37.37,0,0,1,10,13.34Zm-1.39,0A.36.36,0,0,1,9,13H9a.35.35,0,0,1,.36.36h0A.35.35,0,0,1,9,13.7H9A.36.36,0,0,1,8.65,13.34Zm1.19-.56a.36.36,0,0,1,.1-.5h0a.37.37,0,0,1,.5.1h0a.37.37,0,0,1-.1.51h0a.34.34,0,0,1-.2.06h0A.35.35,0,0,1,9.84,12.78ZM11,12a.36.36,0,0,1,.1-.5h0a.36.36,0,0,1,.5.1h0a.36.36,0,0,1-.1.5h0a.39.39,0,0,1-.2.06h0A.37.37,0,0,1,11,12Zm1.16-.77a.36.36,0,0,1,.1-.5h0a.37.37,0,0,1,.5.1h0a.37.37,0,0,1-.1.5h0a.35.35,0,0,1-.19.06h0A.34.34,0,0,1,12.16,11.25Zm1.15-.77a.36.36,0,0,1,.12-.5h0a.36.36,0,0,1,.5.11h0a.38.38,0,0,1-.11.5h0a.41.41,0,0,1-.2.06h0A.37.37,0,0,1,13.31,10.48Zm1.19-.73a.37.37,0,0,1,0-.51h0a.36.36,0,0,1,.51,0h0a.35.35,0,0,1,0,.51h0a.36.36,0,0,1-.24.09h0A.37.37,0,0,1,14.5,9.75Zm.83-1.1a.36.36,0,0,1-.22-.46h0A.38.38,0,0,1,15.58,8h0a.38.38,0,0,1,.22.47h0a.38.38,0,0,1-.33.23h0A.34.34,0,0,1,15.33,8.65Zm.39-1.33a.37.37,0,0,1-.33-.39h0a.37.37,0,0,1,.39-.33h0a.36.36,0,0,1,.33.39h0a.35.35,0,0,1-.36.33h0Zm-.48-1.57a.37.37,0,0,1,.19-.48h0a.36.36,0,0,1,.47.18h0a.37.37,0,0,1-.18.48h0a.37.37,0,0,1-.15,0h0A.36.36,0,0,1,15.24,5.75Zm-4.7-.11a.36.36,0,0,1,0-.51h0a.36.36,0,0,1,.51,0h0a.36.36,0,0,1,0,.51h0a.36.36,0,0,1-.24.09h0A.35.35,0,0,1,10.54,5.64Zm1.09-.86a.36.36,0,0,1,.16-.49h0a.37.37,0,0,1,.48.17h0a.36.36,0,0,1-.17.48h0A.29.29,0,0,1,12,5h0A.35.35,0,0,1,11.63,4.78Zm2.84.15a.36.36,0,0,1-.16-.49h0a.37.37,0,0,1,.49-.15h0a.35.35,0,0,1,.14.49h0a.34.34,0,0,1-.31.19h0A.27.27,0,0,1,14.47,4.93ZM12.93,4.3a.37.37,0,0,1,.36-.37h0a.36.36,0,0,1,.36.36h0a.36.36,0,0,1-.35.36h0A.36.36,0,0,1,12.93,4.3Z"></path><path class="cls-1" d="M24.24,13.63a.35.35,0,0,1,.35-.34h.09l.1,0h0a.34.34,0,0,1,.35.33h0a.35.35,0,0,1-.33.36h-.21A.35.35,0,0,1,24.24,13.63Zm-1.06.14a.33.33,0,0,1-.21-.43h0a.32.32,0,0,1,.42-.22h0a.33.33,0,0,1,.23.43h0a.34.34,0,0,1-.33.25h0Zm2.58-.27a.35.35,0,0,1,.21-.44h0a.33.33,0,0,1,.43.2h0a.35.35,0,0,1-.2.45h0l-.11,0h0A.35.35,0,0,1,25.76,13.5Zm-3.86-.38a.36.36,0,0,1-.06-.49h0a.35.35,0,0,1,.49-.06h0a.35.35,0,0,1,.06.48h0a.35.35,0,0,1-.28.14h0A.44.44,0,0,1,21.9,13.12ZM27,12.94a.32.32,0,0,1,0-.48h0a.35.35,0,0,1,.48,0h0a.35.35,0,0,1,0,.49h0a.35.35,0,0,1-.22.08h0A.29.29,0,0,1,27,12.94Zm-6-.88a.33.33,0,0,1,.1-.47h0a.33.33,0,0,1,.47.1h0a.34.34,0,0,1-.1.48h0a.32.32,0,0,1-.18.06h0A.34.34,0,0,1,20.94,12.06Zm7-.05a.35.35,0,0,1-.12-.47h0a.34.34,0,0,1,.47-.12h0a.33.33,0,0,1,.12.47h0a.34.34,0,0,1-.29.17h0A.37.37,0,0,1,27.89,12Zm-7.55-1.23a.34.34,0,0,1,.22-.43h0a.35.35,0,0,1,.43.23h0a.35.35,0,0,1-.23.43h-.09A.34.34,0,0,1,20.34,10.78Zm8.15.05a.34.34,0,0,1-.24-.42h0a.34.34,0,0,1,.43-.24h0a.33.33,0,0,1,.23.42h0a.34.34,0,0,1-.33.25h-.09ZM20.09,9.4A.35.35,0,0,1,20.41,9h0a.36.36,0,0,1,.37.33h0a.35.35,0,0,1-.33.36h0A.34.34,0,0,1,20.09,9.4Zm8.68.14a.35.35,0,0,1-.33-.36h0a.34.34,0,0,1,.36-.33h0a.36.36,0,0,1,.33.36h0a.35.35,0,0,1-.35.33h0ZM20.45,8.4a.35.35,0,0,1-.29-.4h0a.35.35,0,0,1,.4-.28h0a.34.34,0,0,1,.28.4h0a.32.32,0,0,1-.33.28h-.06ZM28.34,8h0a.35.35,0,0,1,.27-.41h0a.34.34,0,0,1,.41.27h0a.35.35,0,0,1-.27.4h-.07A.34.34,0,0,1,28.34,8Zm-7.6-.84a.35.35,0,0,1-.17-.46h0A.34.34,0,0,1,21,6.48h0a.35.35,0,0,1,.18.46h0a.37.37,0,0,1-.32.2h0ZM28,6.78a.35.35,0,0,1,.16-.46h0a.34.34,0,0,1,.46.15h0a.36.36,0,0,1-.16.47h0l-.15,0h0A.34.34,0,0,1,28,6.78Zm-6.59-.84a.35.35,0,0,1,0-.49h0a.35.35,0,0,1,.48,0h0a.33.33,0,0,1,0,.49h0a.35.35,0,0,1-.26.12h0A.35.35,0,0,1,21.36,5.94Zm5.9-.16h0a.35.35,0,0,1,0-.49h0a.36.36,0,0,1,.49,0h0a.35.35,0,0,1,0,.49h0a.39.39,0,0,1-.24.1h0A.38.38,0,0,1,27.26,5.78Zm-5-.76a.34.34,0,0,1,.14-.46h0a.33.33,0,0,1,.46.14h0a.33.33,0,0,1-.13.46h0a.29.29,0,0,1-.16,0h0A.33.33,0,0,1,22.31,5Zm4,.06a.34.34,0,0,1-.17-.46h0a.35.35,0,0,1,.46-.16h0a.34.34,0,0,1,.16.46h0a.33.33,0,0,1-.3.19h0A.33.33,0,0,1,26.3,5.08ZM23.52,4.5a.35.35,0,0,1,.29-.4h0a.34.34,0,0,1,.39.28h0a.35.35,0,0,1-.27.4h-.07A.34.34,0,0,1,23.52,4.5Zm1.62.26a.35.35,0,0,1-.3-.39h0a.35.35,0,0,1,.38-.3h0a.34.34,0,0,1,.3.38h0a.35.35,0,0,1-.34.31h0Z"></path><path class="cls-1" d="M34.72,12.84a.37.37,0,0,1,.37-.36h0a.36.36,0,0,1,.36.36h0a.36.36,0,0,1-.36.36h0A.36.36,0,0,1,34.72,12.84Zm0-1.39a.36.36,0,0,1,.37-.36h0a.36.36,0,0,1,.36.36h0a.37.37,0,0,1-.36.37h0A.37.37,0,0,1,34.72,11.45Zm0-1.39a.37.37,0,0,1,.37-.36h0a.36.36,0,0,1,.36.36h0a.37.37,0,0,1-.36.37h0A.37.37,0,0,1,34.72,10.06Zm0-1.39a.37.37,0,0,1,.37-.36h0a.36.36,0,0,1,.36.36h0a.37.37,0,0,1-.36.37h0A.37.37,0,0,1,34.72,8.67Zm0-1.38a.37.37,0,0,1,.37-.37h0a.37.37,0,0,1,.36.37h0a.36.36,0,0,1-.36.36h0A.37.37,0,0,1,34.72,7.29Zm0-1.39a.37.37,0,0,1,.37-.37h0a.37.37,0,0,1,.36.37h0a.36.36,0,0,1-.36.36h0A.37.37,0,0,1,34.72,5.9ZM32,5.25a.37.37,0,0,1,.27-.43h0a.38.38,0,0,1,.44.27h0a.36.36,0,0,1-.28.43h-.08A.37.37,0,0,1,32,5.25Zm1.36-.31a.35.35,0,0,1,.27-.43h0a.36.36,0,0,1,.43.27h0a.37.37,0,0,1-.27.44h-.09A.35.35,0,0,1,33.34,4.94Zm1.35-.3A.36.36,0,0,1,35,4.21h0a.35.35,0,0,1,.43.27h0a.37.37,0,0,1-.28.43h-.07A.38.38,0,0,1,34.69,4.64Z"></path><path class="cls-1" d="M44.88,8.52a.36.36,0,0,1,.22-.46h0a.36.36,0,0,1,.46.22h0a.35.35,0,0,1-.22.46h0a.25.25,0,0,1-.12,0h0A.35.35,0,0,1,44.88,8.52Zm-3.24.06a.35.35,0,0,1-.15-.48h0A.35.35,0,0,1,42,7.94h0a.36.36,0,0,1,.16.49h0a.37.37,0,0,1-.32.19h0A.33.33,0,0,1,41.64,8.58ZM46.16,8a.36.36,0,0,1,0-.51h0a.37.37,0,0,1,.52,0h0a.38.38,0,0,1,0,.51h0a.38.38,0,0,1-.25.1h0A.36.36,0,0,1,46.16,8Zm-5.69-.43a.37.37,0,0,1,.1-.5h0a.36.36,0,0,1,.5.11h0a.37.37,0,0,1-.1.5h0a.41.41,0,0,1-.21,0h0A.33.33,0,0,1,40.47,7.56ZM47,6.86a.35.35,0,0,1-.35-.37h0A.36.36,0,0,1,47,6.14h0a.36.36,0,0,1,.35.37h0a.36.36,0,0,1-.36.35h0Zm-6.53-.48a.36.36,0,0,1-.25-.44h0a.35.35,0,0,1,.44-.25h0a.35.35,0,0,1,.25.44h0a.35.35,0,0,1-.34.26h-.1Zm5.77-.89a.35.35,0,0,1,0-.51h0a.37.37,0,0,1,.51,0h0a.36.36,0,0,1,0,.51h0a.35.35,0,0,1-.25.1h0A.35.35,0,0,1,46.22,5.49Zm-5.16-.34a.37.37,0,0,1,.07-.51h0a.37.37,0,0,1,.51.07h0a.36.36,0,0,1-.08.51h0a.31.31,0,0,1-.21.07h0A.37.37,0,0,1,41.06,5.15Zm4.14-.32a.36.36,0,0,1-.2-.47h0a.36.36,0,0,1,.47-.21h0a.39.39,0,0,1,.21.47h0a.39.39,0,0,1-.35.23h0Zm-3-.39A.36.36,0,0,1,42.51,4h0a.36.36,0,0,1,.44.26h0a.37.37,0,0,1-.26.44H42.6A.36.36,0,0,1,42.25,4.44ZM44,4.57a.36.36,0,0,1-.35-.38h0A.36.36,0,0,1,44,3.85h0a.37.37,0,0,1,.34.38h0a.35.35,0,0,1-.36.34h0Z"></path><ellipse class="cls-5" cx="43.7" cy="11.65" rx="3.18" ry="2.44"></ellipse></g></svg>