<svg viewBox="0 0 192 192" xmlns="http://www.w3.org/2000/svg" width="192" height="192"><g transform="rotate(0 3.14 2.18) translate(14.040224017337792 26.83066133701402) scale(1.3463618231238146)"><defs><style>.cls-1{fill:#082a46;}.cls-2{fill:#214a70;}.cls-3{fill:#91d7f2;}.cls-4{fill:#4ca1d9;}.cls-5{fill:#1f5295;}.cls-6{fill:#3870b6;}.cls-7{fill:#fff;opacity:0.2;}.cls-8{fill:#173c5c;}</style></defs><path class="cls-1" d="M114.76,47.33C113,25.52,86.91,8,60.85,8S8.75,25.3,6.92,47.33v32.3H114.76Z"></path><path class="cls-2" d="M105.1,47.33C103.61,25.52,82.23,8,60.85,8S18.08,25.3,16.58,47.33v32.3H105.1Z"></path><polygon class="cls-3" points="66.13 26.14 60.84 18.8 55.55 26.14"></polygon><polygon class="cls-4" points="67.59 28.17 54.09 28.17 49.19 34.96 72.49 34.96"></polygon><polygon class="cls-5" points="55.55 45.81 60.84 53.15 66.13 45.81"></polygon><polygon class="cls-6" points="54.09 43.78 67.59 43.78 72.49 36.99 49.19 36.99"></polygon><path class="cls-7" d="M60.85,8h0V79.62H105.1V47.33C103.61,25.52,82.23,8,60.85,8Z"></path><path class="cls-8" d="M60.84,61.86c-30.77,0-44.26,10.35-44.26,10.35V85.75a12.84,12.84,0,0,0,4,9.62A7.41,7.41,0,0,0,29,96.59c8.88-4.47,21.11-9.4,31.87-9.4s23,4.93,31.87,9.4a7.41,7.41,0,0,0,8.42-1.22,12.84,12.84,0,0,0,4-9.62V72.21S91.61,61.86,60.84,61.86Z"></path><ellipse class="cls-2" cx="60.84" cy="7.98" rx="2.91" ry="2.11"></ellipse></g></svg>