<svg viewBox="0 0 192 192" xmlns="http://www.w3.org/2000/svg" width="192" height="192"><g transform="rotate(0 3.14 2.18) translate(15.968691812880877 17.897157070401818) scale(1.5427722060167541)"><defs><style>.cls-1{fill:#6e6f72;}.cls-2{fill:#929497;}.cls-3{fill:#8f9194;}.cls-4{fill:#8f9093;}.cls-5{fill:#828386;}.cls-6{fill:#86878a;}.cls-7{fill:#96989b;}.cls-8{fill:#999a9e;}.cls-10,.cls-9{fill:#dfe0e0;}.cls-10{stroke:#6e6f72;stroke-miterlimit:10;stroke-width:1.2px;}.cls-11{fill:#e5e6e7;}</style></defs><path class="cls-1" d="M95.4,65a23.67,23.67,0,0,0-1.55-2.73,11.47,11.47,0,0,1-1-3c-.43-2.24-.4-4.55-.68-6.82a40,40,0,0,0-3-11.44c-3.27-7.25-9.55-11.84-16.85-14.62A50.33,50.33,0,0,0,59.6,23.55c-3.8-.42-5.47-9.88-4.6-9.87,3,.05,5-1.9,4.77-4-.31-2.37-2.16-2.58-4.08-2.26a5.32,5.32,0,0,0-1.86.82c-2,1.23-3.79,1.32-5.7-.25a3.9,3.9,0,0,0-4.68-.09,2.48,2.48,0,0,0-1.33,2.94,3.67,3.67,0,0,0,4,2.47c2.62-.3.29,8-.82,9.17-.84.89-2.38,1-3.55,1.15-1.81.26-8.75,1.68-10.22,2.17a28.49,28.49,0,0,0-9,4.61C15.7,35.8,14.78,44,13.49,52a41.06,41.06,0,0,0-.55,6.55c0,2.17-.92,3.69-1.77,5.61A32,32,0,0,0,8.51,77.87c.1,3.69.85,8.85,4.41,10.93,1.88,1.11,2,.17,2.48-1.37s2.7-2.64,4.1-3.51c7.3-4.51,15.64-6.23,24-7.18.67-.07,1.35-.15,2-.21,9.45-1,19.33-1.48,28.59,1.1,8.13,2.27,16.4,8,16.56,17.15,3.5-3.87,3.9-9.39,4.39-14.36.25-2.6.4-5.21.51-7.82C95.72,70.22,96.2,67.33,95.4,65Z"></path><path class="cls-2" d="M40.19,26c10.34-1,21.67-1.4,31.53,2.21,12.51,4.58,17,12.26,18.66,24.89a37.84,37.84,0,0,0,.88,5.7C82,51,71.25,51.48,61.05,49.94c-10.42-1.58-20.78-2.18-31.23,2.24C30.12,47.13,28.11,27.2,40.19,26Z"></path><path class="cls-2" d="m28.18 49.1c0.23 3.56-1.42 5.07-4.51 5.74-1.75-6.56 3.66-25 8.26-27.08-0.55 1.59-4.31 12.63-3.75 21.34z"></path><path class="cls-2" d="M26.14,30.58a122.44,122.44,0,0,0-5.27,24.05c-.15,1.17-.77,2.1-1.81,2-1.26-.16-.63-1.48-.61-2.23.18-7.59.68-15.12,5.27-21.64a13.61,13.61,0,0,1,1.08-1.42A7.15,7.15,0,0,1,26.14,30.58Z"></path><path class="cls-3" d="M20,36.18c-1.48,2.7-3.7,10.7-3.3,20.45.05,1.23-.61,1.43-2.15,1.93C14.1,50.31,17.42,40,17.42,40Z"></path><path class="cls-2" d="M26.23,68.43c-.33-2.92.27-5.76.67-8.62.81-5.72,5.43-6.94,9.94-8,8.18-1.95,16.39-1.11,24.57.15,5.49.85,11.1.91,16.52,2.21a33.82,33.82,0,0,1,8.81,3.64c2.6,1.48,3.51,3.67,3.66,6.37.31,5.52-.72,10.89-2,16.22-.4,1.66-.8,2.05-2.49.83a34.93,34.93,0,0,0-15.48-6.44,99.14,99.14,0,0,0-20.16-.22,109.05,109.05,0,0,0-19.46,2.62c-2.65.67-3.63-.07-4.24-2.48C26,72.59,26.39,70.51,26.23,68.43Z"></path><path class="cls-2" d="M18.45,71.12c-.35-3.3.39-6.59,1.17-9.88a5.06,5.06,0,0,1,1.49-2.86c1.17-1,2.77-2,4-1.46s-.06,2.14-.19,3.23c-.66,5.64-1.07,11.22.35,16.84.79,3.11-2.51,2.73-4,3.75-1.72,1.19-1.79-.9-2.11-1.83A19.67,19.67,0,0,1,18.45,71.12Z"></path><path class="cls-2" d="M17.38,60.64c-.9,7-1.77,13.84.61,20.63.58,1.63-.61,1.91-1.42,2.45-1,.66-1.44-.13-1.7-1A26.66,26.66,0,0,1,17.38,60.64Z"></path><path class="cls-4" d="M14.21,86.36C9.39,83.46,9.6,74.83,12.28,68A32,32,0,0,0,14.21,86.36Z"></path><path class="cls-5" d="M92,71.53c.49,4.57-.88,8.9-2,13.27-1-2.21.35-4.27.71-6.36C91,76.14,91.66,73.87,92,71.53Z"></path><path class="cls-6" d="m93.54 80c-0.41 2.81-0.83 5.61-1.25 8.42-1.41-2.98 0.31-5.6 1.25-8.42z"></path><ellipse class="cls-5" cx="92.52" cy="66.14" rx=".21" ry="3.36"></ellipse><path class="cls-1" d="M75.84,58.85c-.22.87-1.09,1.11-1.7,1.53-5.44,3.78-5.44,3.76-.24,8.18.84.72,1.59,1.53,2.35,2.32.54.56,1.34,1.17.43,2s-1.45-.1-2-.62c-1.94-1.88-3.87-3.77-5.75-5.7-1-1-1.9-1.27-3.09-.24C64,67.93,62,69.46,60.08,71c-.58.46-1.16,1.55-2,.68-1-1,.41-1.54.94-2a50.39,50.39,0,0,1,5.17-4.52c1.39-1,1.31-1.7.09-2.65a7.63,7.63,0,0,1-1.27-1.27c-.48-.62-1.75-1.07-.63-2.14s1.69.17,2.1.75c1.91,2.63,3.82,2.91,6.21.54a17.41,17.41,0,0,1,3.52-2.24C75.06,57.63,75.56,58,75.84,58.85Z"></path><path class="cls-1" d="M52.87,70c-.54.68-.71,1.06-1,1.23-.66.39-1.12-.12-1.54-.53-2-1.93-4.07-3.81-6.16-5.67-1.39-1.24-2.25-1.09-3.54-.11-2,1.5-4,2.91-6.12,4.27-.66.42-1.43,1.73-2.23.65s.66-1.67,1.31-2.19C35.22,66.34,37,65.16,38.72,64s2.4-2.09.15-3.32a7,7,0,0,1-1.39-1.11.84.84,0,0,1-.19-1.09.87.87,0,0,1,1.28-.3c.09.05.21.07.27.14,3.61,4.4,6.48,1,9.47-.92.42-.27.8-.6,1.23-.85s1.12-.62,1.56.08,0,1.18-.5,1.52c-1.63,1.14-3.29,2.25-5,3.34-1.1.71-1.22,1.21-.07,2.16,2.07,1.7,4,3.65,5.94,5.46A8.42,8.42,0,0,0,52.87,70Z"></path><path class="cls-7" d="m36.5 35.27c0-0.76-0.06-1.51 0.79-1.42a2.28 2.28 0 0 1 2.16 2.43c0 1.18-0.5 2.75-1.52 2.49-1.53-0.38-0.76-2.46-1.43-3.5z"></path><path class="cls-8" d="M73,40.69c.37-1-.56-2.72,1.06-2.85,1.15-.1,1.43,1.36,1.44,2.51S75.06,43,73.8,43C72.33,43.06,73.32,41.52,73,40.69Z"></path><path class="cls-9" d="M53.7,20.94c-1.89,0-4.24.11-5.9,0,.83-2.37,1.47-5.9.73-7.62-.65-1.5-1.88-1.33-3.23-1.55s-2.48-1.75-1.06-2.63a3.07,3.07,0,0,1,1.61-.51c.89,0,1.51.67,2.21,1.11a5.71,5.71,0,0,0,3,.89,6.72,6.72,0,0,0,3.59-1.16,3.86,3.86,0,0,1,3-.64,1,1,0,0,1,.67,1c.21,1.61-1.94,2.32-3.17,2.31H55a1.66,1.66,0,0,0-1.5.94c-.69,1.41.17,5.12,1.42,7.8Z"></path><circle class="cls-1" cx="45.65" cy="10.33" r=".75"></circle><circle class="cls-1" cx="56.4" cy="10.33" r=".75"></circle><path class="cls-10" d="M58,18.51c.4,3.67.15,5.32-6.5,5.32-7,0-6.6-1.75-6.4-5.32.09-1.68,2.56-3,6.45-3S57.77,16.84,58,18.51Z"></path><path class="cls-10" d="M58.05,23.58c.37-.45.6-.6.5-1.9-.16-2.06-3.16-3.74-7-3.74s-7,1.67-7,3.74c-.05,1.75.26,1.67.54,2.06A60.11,60.11,0,0,1,58.05,23.58Z"></path><path class="cls-10" d="m53.6 23.08h-4.6s-0.65-2.3 2.3-2.3 2.3 2.3 2.3 2.3z"></path><path class="cls-11" d="M32.82,31.3c2.53-.51,4.67-.88,7.09,0,3.05,1.11,5,3.57,4.19,6.62-.22.77-1,1.64-.7,2.16.62,1.14,3.9,2.1,3.9,2.1l-2,3.8-6.4-2,.9,3-5.46,1.18S30,32.18,30.45,32Z"></path><path class="cls-11" d="M56,34.94l3.81.64-.1,3.7L56.3,39v2.8s5.1-.16,6.4-.1c1.77.09,1.55.14,1.6,1.9.1,3.5-.3,4.1-.3,4.1s-10,0-13.8-.25c2.17-5.51.94-10.82.2-16.13-.46-3.27-.15-3.9,2.87-2.52a15.72,15.72,0,0,0,8.49,1.09l.14,3.71-5.9-.7Z"></path><path class="cls-11" d="M69.6,31.08a20.22,20.22,0,0,1,2,.46c4.68,1.16,7.72,4.23,8,8.11-.51,7-7.31,6-7.31,6l-.1,3.9-4.1-.4Z"></path><path class="cls-7" d="M34.49,34.39a1.26,1.26,0,0,1,1.15-.32,2.55,2.55,0,0,1,2.41,2.27c.44,2.17-1.91,2.78-1.91,2.78Z"></path><path class="cls-7" d="M73.25,37.42a1.24,1.24,0,0,1,1.17.22,2.55,2.55,0,0,1,1.16,3.11c-.57,2.13-3,1.64-3,1.64Z"></path></g></svg>