<svg viewBox="0 0 192 192" xmlns="http://www.w3.org/2000/svg" width="192" height="192"><g transform="rotate(0 3.14 2.18) translate(15.506548782300271 31.68985763421624) scale(0.8461860837603126)"><defs><style>.cls-1{fill:#e6e7e7;}.cls-2{fill:#fbb042;}.cls-3{fill:#fff;opacity:0.3;}.cls-4{fill:#c1a368;}.cls-5{fill:#d2d3d4;}.cls-6{fill:#dbba7e;}.cls-7{fill:#3363ae;}.cls-8{fill:#2c5193;}</style></defs><rect class="cls-1" x="28.94" y="43.25" width="10.14" height="33.85"></rect><path class="cls-2" d="m35.36 25.51c-0.42 6.3 7.44 8.8-1.18 17.41-6.59-4.41-5.41-13 1.18-17.41z"></path><path class="cls-3" d="M34.18,42.92a11.8,11.8,0,0,1-.32-12.8c.27.88.59,1.69.87,2.43C36,35.77,37,38.69,34.18,42.92Z"></path><path class="cls-4" d="m34 80.48c4.67 0 8.45-3 8.45-6.76h-16.89c0 3.73 3.79 6.76 8.44 6.76z"></path><rect class="cls-5" x="28.94" y="43.25" width="3.6" height="29.93"></rect><rect class="cls-6" x="25.56" y="71.78" width="16.9" height="1.94"></rect><rect class="cls-1" x="8.55" y="43.25" width="10.14" height="33.85"></rect><path class="cls-2" d="m15 25.51c-0.43 6.3 7.43 8.8-1.18 17.41-6.63-4.41-5.45-13 1.18-17.41z"></path><path class="cls-3" d="M13.79,42.92a11.83,11.83,0,0,1-.33-12.8c.28.88.59,1.69.87,2.43C15.58,35.77,16.6,38.69,13.79,42.92Z"></path><path class="cls-4" d="m13.61 80.48c4.67 0 8.45-3 8.45-6.76h-16.9c0 3.73 3.84 6.76 8.45 6.76z"></path><rect class="cls-5" x="8.55" y="43.25" width="3.6" height="29.93"></rect><rect class="cls-6" x="5.16" y="71.78" width="16.9" height="1.94"></rect><rect class="cls-1" x="49.34" y="43.25" width="10.14" height="33.85"></rect><path class="cls-2" d="m55.76 25.51c-0.42 6.3 7.44 8.8-1.18 17.41-6.58-4.41-5.41-13 1.18-17.41z"></path><path class="cls-3" d="M54.58,42.92a12.29,12.29,0,0,1-2-6.59,12.44,12.44,0,0,1,1.72-6.21c.28.88.59,1.69.88,2.43C56.37,35.77,57.4,38.69,54.58,42.92Z"></path><path class="cls-4" d="m54.41 80.48c4.67 0 8.45-3 8.45-6.76h-16.86c0 3.73 3.74 6.76 8.41 6.76z"></path><rect class="cls-5" x="49.34" y="43.25" width="3.6" height="29.93"></rect><rect class="cls-6" x="45.96" y="71.78" width="16.9" height="1.94"></rect><rect class="cls-1" x="69.74" y="43.25" width="10.14" height="33.85"></rect><path class="cls-2" d="m76.16 25.51c-0.43 6.3 7.44 8.8-1.18 17.41-6.6-4.41-5.41-13 1.18-17.41z"></path><path class="cls-3" d="M75,42.92a12.29,12.29,0,0,1-2-6.59,12.44,12.44,0,0,1,1.72-6.21c.28.88.59,1.69.88,2.43C76.77,35.77,77.8,38.69,75,42.92Z"></path><path class="cls-4" d="m74.81 80.48c4.67 0 8.45-3 8.45-6.76h-16.9c0 3.73 3.78 6.76 8.45 6.76z"></path><rect class="cls-5" x="69.74" y="43.25" width="3.6" height="29.93"></rect><rect class="cls-6" x="66.36" y="71.78" width="16.9" height="1.94"></rect><rect class="cls-1" x="90.14" y="26.17" width="10.14" height="50.94"></rect><path class="cls-2" d="m96.56 8.42c-0.43 6.3 7.43 8.8-1.18 17.42-6.6-4.42-5.38-13 1.18-17.42z"></path><path class="cls-3" d="M95.38,25.84a12.32,12.32,0,0,1-2-6.6A12.3,12.3,0,0,1,95.05,13c.28.87.59,1.68.88,2.43C97.17,18.69,98.19,21.6,95.38,25.84Z"></path><path class="cls-4" d="m95.21 80.48c4.66 0 8.45-3 8.45-6.76h-16.9c0 3.73 3.78 6.76 8.45 6.76z"></path><rect class="cls-6" x="86.76" y="71.78" width="16.9" height="1.94"></rect><rect class="cls-5" x="110.5" y="43.25" width="10.14" height="33.85"></rect><rect class="cls-1" x="110.5" y="43.25" width="10.14" height="33.85"></rect><path class="cls-2" d="m117 25.51c-0.43 6.3 7.43 8.8-1.18 17.41-6.64-4.41-5.46-13 1.18-17.41z"></path><path class="cls-3" d="m115.8 42.92a11.83 11.83 0 0 1-0.33-12.8c0.28 0.88 0.59 1.69 0.88 2.43 1.24 3.22 2.26 6.14-0.55 10.37z"></path><path class="cls-4" d="m115.6 80.48c4.67 0 8.45-3 8.45-6.76h-16.9c0 3.73 3.79 6.76 8.45 6.76z"></path><rect class="cls-5" x="117.1" y="43.25" width="3.6" height="29.93"></rect><rect class="cls-6" x="107.2" y="71.78" width="16.9" height="1.94"></rect><rect class="cls-1" x="130.9" y="43.25" width="10.14" height="33.85"></rect><path class="cls-2" d="m137.4 25.51c-0.42 6.3 7.44 8.8-1.18 17.41-6.59-4.41-5.41-13 1.18-17.41z"></path><path class="cls-3" d="M136.17,42.92a11.8,11.8,0,0,1-.32-12.8c.28.88.59,1.69.87,2.43C138,35.77,139,38.69,136.17,42.92Z"></path><path class="cls-4" d="m136 80.48c4.67 0 8.45-3 8.45-6.76h-16.9c0 3.73 3.78 6.76 8.45 6.76z"></path><rect class="cls-5" x="137.5" y="43.25" width="3.6" height="29.93"></rect><rect class="cls-6" x="127.6" y="71.78" width="16.9" height="1.94"></rect><rect class="cls-1" x="151.3" y="43.25" width="10.14" height="33.85"></rect><path class="cls-2" d="m157.8 25.51c-0.42 6.3 7.44 8.8-1.18 17.41-6.57-4.41-5.41-13 1.18-17.41z"></path><path class="cls-3" d="m156.6 42.92a11.8 11.8 0 0 1-0.32-12.8c0.28 0.88 0.59 1.69 0.87 2.43 1.24 3.22 2.27 6.14-0.55 10.37z"></path><path class="cls-4" d="m156.4 80.48c4.67 0 8.45-3 8.45-6.76h-16.85c0 3.73 3.73 6.76 8.4 6.76z"></path><rect class="cls-5" x="157.9" y="43.25" width="3.6" height="29.93"></rect><rect class="cls-6" x="148" y="71.78" width="16.9" height="1.94"></rect><rect class="cls-1" x="171.7" y="43.25" width="10.14" height="33.85"></rect><path class="cls-2" d="m178.2 25.51c-0.42 6.3 7.44 8.8-1.18 17.41-6.59-4.41-5.41-13 1.18-17.41z"></path><path class="cls-3" d="M177,42.92a12.29,12.29,0,0,1-2.05-6.59,12.44,12.44,0,0,1,1.72-6.21c.28.88.59,1.69.88,2.43C178.76,35.77,179.79,38.69,177,42.92Z"></path><path class="cls-4" d="m176.8 80.48c4.67 0 8.45-3 8.45-6.76h-16.9c0 3.73 3.78 6.76 8.45 6.76z"></path><rect class="cls-5" x="178.3" y="43.25" width="3.6" height="29.93"></rect><rect class="cls-6" x="168.4" y="71.78" width="16.9" height="1.94"></rect><path class="cls-7" d="m96.12 117.7c49.36 0 89.38-16.67 89.38-37.23h-178.8c0 20.52 40.01 37.23 89.37 37.23z"></path><path class="cls-8" d="m96.12 90.29c-28.54 0-51.68 9.22-51.68 20.58v27.84a5.11 5.11 0 0 0 5.11 5.12c8.36-6.9 26.07-11.65 46.57-11.65s38.22 4.75 46.58 11.65a5.11 5.11 0 0 0 5.11-5.12v-27.84c0-11.36-23.14-20.58-51.69-20.58z"></path></g></svg>