<svg viewBox="0 0 192 192" xmlns="http://www.w3.org/2000/svg" width="192" height="192"><g transform="rotate(0 3.14 2.18) translate(5.607083733735067 35.73805582249005) scale(1.2489522109328488)"><defs><style>.cls-1{fill:#efcf33;}.cls-2{fill:#c12929;}.cls-3{fill:#efb700;}.cls-4{opacity:0.2;}.cls-5{fill:#fff;}</style></defs><g data-name="Layer 1"><circle class="cls-1" cx="57.75" cy="23.42" r=".63"></circle><circle class="cls-1" cx="63.63" cy="17.54" r=".63"></circle><circle class="cls-1" cx="57.29" cy="11.87" r=".63"></circle><circle class="cls-1" cx="47.88" cy="10.79" r=".63"></circle><circle class="cls-1" cx="80.67" cy="7.41" r=".63"></circle><circle class="cls-1" cx="84.88" cy="18.67" r=".63"></circle><circle class="cls-1" cx="100.6" cy="14.92" r=".63"></circle><circle class="cls-1" cx="34" cy="18.37" r=".63"></circle><circle class="cls-1" cx="121" cy="51.75" r=".63"></circle><circle class="cls-1" cx="130.4" cy="57.91" r=".63"></circle><circle class="cls-1" cx="31.08" cy="72.04" r=".63"></circle><circle class="cls-1" cx="111.6" cy="73.58" r=".63"></circle><circle class="cls-1" cx="112.8" cy="53.54" r=".63"></circle><circle class="cls-1" cx="99" cy="31.25" r=".63"></circle><circle class="cls-1" cx="30.5" cy="49.04" r=".63"></circle><circle class="cls-1" cx="20.5" cy="51.17" r=".63"></circle><circle class="cls-1" cx="41.25" cy="28.42" r=".63"></circle><circle class="cls-1" cx="24.17" cy="41.41" r=".63"></circle><circle class="cls-1" cx="124" cy="23.17" r=".63"></circle><circle class="cls-1" cx="129" cy="43.91" r=".62"></circle><circle class="cls-1" cx="117.2" cy="12.79" r=".63"></circle><circle class="cls-1" cx="136" cy="23.54" r=".63"></circle><circle class="cls-1" cx="9.12" cy="42.25" r=".63"></circle><circle class="cls-1" cx="24.67" cy="18.79" r=".63"></circle><circle class="cls-1" cx="10.79" cy="71.58" r=".63"></circle><circle class="cls-1" cx="109.8" cy="22.46" r=".63"></circle><circle class="cls-1" cx="123.3" cy="33.92" r=".63"></circle><circle class="cls-1" cx="113.6" cy="32.58" r=".63"></circle><circle class="cls-1" cx="33.21" cy="35.37" r=".63"></circle><path class="cls-2" d="M64.66,33a3.79,3.79,0,0,1-.58-2.2,8.55,8.55,0,0,0-.83-2.54,5.55,5.55,0,0,0,.3,1.28c.26.8-.33,2.75-.22,3.35s.8,1.26,1.07,1.93a6.33,6.33,0,0,1,0,2.49v.34l2.07-.56a6.69,6.69,0,0,0-.26-2C65.89,34.14,65.15,33.81,64.66,33Z"></path><path class="cls-2" d="M49.54,41a3.71,3.71,0,0,1-1.6-1.61,8.68,8.68,0,0,0-2-1.79,6,6,0,0,0,.89,1c.63.56,1.1,2.55,1.49,3s1.32.7,1.89,1.14.82,1.45,1.22,2.17l.17.29,1.52-1.52A6.61,6.61,0,0,0,51.88,42C51.17,41.31,50.35,41.39,49.54,41Z"></path><path class="cls-2" d="M41.06,55.06a3.86,3.86,0,0,1-2.2-.6,8.52,8.52,0,0,0-2.61-.56,5.41,5.41,0,0,0,1.25.39c.83.17,2.22,1.66,2.8,1.86s1.49,0,2.2,0,1.44.85,2.14,1.27l.29.18.56-2.08a6.59,6.59,0,0,0-1.9-.79C42.64,54.54,42,55,41.06,55.06Z"></path><path class="cls-2" d="M42.37,69.86c-.94.28-1.27,1-2,1.52a3.79,3.79,0,0,1-2.2.58,8.6,8.6,0,0,0-2.54.82,5.79,5.79,0,0,0,1.28-.29c.8-.26,2.75.33,3.35.22s1.26-.8,1.93-1.07a6.15,6.15,0,0,1,2.49,0H45l-.56-2.07A6.69,6.69,0,0,0,42.37,69.86Z"></path><path class="cls-2" d="M103.46,72.62c-.7-.24-1.49.06-2.21,0s-1.44-.84-2.14-1.26l-.29-.18-.56,2.08a6.59,6.59,0,0,0,1.9.79c1,.22,1.62-.26,2.53-.29a3.79,3.79,0,0,1,2.2.6,8.74,8.74,0,0,0,2.61.55,5.55,5.55,0,0,0-1.25-.38C105.43,74.31,104,72.83,103.46,72.62Z"></path><path class="cls-2" d="M99.15,58.47a6.69,6.69,0,0,0,2-.26c.94-.28,1.27-1,2-1.52a3.79,3.79,0,0,1,2.2-.58,8.49,8.49,0,0,0,2.54-.82,5.91,5.91,0,0,0-1.28.29c-.8.26-2.75-.33-3.35-.22s-1.26.8-1.93,1.07a6,6,0,0,1-2.49,0h-.34Z"></path><path class="cls-2" d="M98,39.51c-.57.63-2.55,1.1-3,1.49s-.7,1.32-1.15,1.89-1.44.82-2.16,1.22l-.3.17L92.9,45.8a7.12,7.12,0,0,0,1.64-1.25c.67-.72.58-1.53,1-2.34a3.79,3.79,0,0,1,1.62-1.6,8.58,8.58,0,0,0,1.78-2A6.27,6.27,0,0,0,98,39.51Z"></path><path class="cls-2" d="M80.32,32.6c-.24.7.06,1.49,0,2.21S79.44,36.24,79,37l-.17.29,2.08.56a7.35,7.35,0,0,0,.79-1.9c.22-1-.26-1.62-.29-2.54a3.7,3.7,0,0,1,.6-2.19,8.85,8.85,0,0,0,.55-2.62,5.8,5.8,0,0,0-.38,1.26C82,30.63,80.53,32,80.32,32.6Z"></path><path class="cls-3" d="m50.73 31.76c0.8 1.67 2.74 2.53 3.83 4 1.22 1.62 1.07 3.76 1.47 5.67a27.1 27.1 0 0 1 4.62-2.59 15.94 15.94 0 0 0-1.65-3.7c-1.3-2.08-3.31-2.41-5-4a9.53 9.53 0 0 1-2.83-4.94c-0.32-1.71-3.64-5.6-3.64-5.6a14.08 14.08 0 0 0 1.54 2.89c1.17 1.8 1 6.89 1.66 8.27z"></path><path class="cls-3" d="M118.57,65c-2.11.12-6.43-2.57-7.95-2.69-1.85-.14-3.57,1.1-5.36,1.32-2,.26-3.79-.94-5.63-1.55q.09,1.1.09,2.22a28.58,28.58,0,0,1-.18,3.07,16.08,16.08,0,0,0,4,.41c2.45-.08,3.74-1.66,5.94-2.33a9.44,9.44,0,0,1,5.69,0c1.64.58,6.66-.35,6.66-.35A14,14,0,0,0,118.57,65Z"></path><path class="cls-3" d="M71.18,30.92c.25,2-1,3.79-1.56,5.63.73,0,1.47-.09,2.22-.09a28.14,28.14,0,0,1,3.07.17,16,16,0,0,0,.42-4c-.08-2.45-1.67-3.74-2.34-5.93A9.55,9.55,0,0,1,73,21c.58-1.63-.35-6.66-.35-6.66a14.75,14.75,0,0,0-.12,3.27c.12,2.11-2.57,6.43-2.69,8C69.71,27.41,71,29.13,71.18,30.92Z"></path><path class="cls-3" d="M88.35,41.89a16.71,16.71,0,0,0,2.37-3.27c1.15-2.16.42-4.07.94-6.31a9.56,9.56,0,0,1,2.86-4.92c1.33-1.12,3-5.94,3-5.94a14.08,14.08,0,0,0-1.74,2.77c-1,1.88-5.44,4.29-6.3,5.54-1.05,1.53-.84,3.64-1.54,5.31-.78,1.86-2.7,2.8-4.16,4.09A27.75,27.75,0,0,1,88.35,41.89Z"></path><path class="cls-3" d="M97.37,53.15a16.49,16.49,0,0,0,3.68-1.65c2.08-1.29,2.4-3.31,4-5A9.56,9.56,0,0,1,110,43.68c1.71-.31,5.59-3.63,5.59-3.63a14.28,14.28,0,0,0-2.89,1.53c-1.77,1.16-6.86,1-8.23,1.65-1.67.8-2.54,2.73-4,3.82-1.62,1.23-3.76,1.08-5.66,1.47A28.25,28.25,0,0,1,97.37,53.15Z"></path><path class="cls-3" d="M37.27,46.68c1.53,1,3.64.83,5.3,1.53,1.87.79,2.81,2.71,4.1,4.16a28.13,28.13,0,0,1,2.72-4.54,16,16,0,0,0-3.27-2.36c-2.16-1.16-4.07-.43-6.3-.95a9.52,9.52,0,0,1-4.92-2.86c-1.13-1.32-5.95-3-5.95-3a14.42,14.42,0,0,0,2.78,1.74C33.61,41.32,36,45.81,37.27,46.68Z"></path><path class="cls-3" d="M38.43,65c2-.26,3.78.94,5.63,1.55-.06-.73-.1-1.48-.1-2.22a28.28,28.28,0,0,1,.17-3.07,16.44,16.44,0,0,0-4-.42c-2.44.09-3.73,1.67-5.93,2.34a9.44,9.44,0,0,1-5.69,0c-1.64-.58-6.67.35-6.67.35a14.07,14.07,0,0,0,3.28.12c2.1-.12,6.43,2.57,8,2.69C34.92,66.47,36.64,65.23,38.43,65Z"></path><path class="cls-3" d="M93.92,77.83a25.89,25.89,0,1,0-44.15,0l1.07,1.74.91-.61a35.81,35.81,0,0,1,40.19,0l.9.61Z"></path><path class="cls-3" d="M106.42,82c-1.53-1-3.64-.83-5.3-1.53-1.88-.79-2.82-2.72-4.11-4.18a27.83,27.83,0,0,1-1.39,2.58l-1.1,1.79-.17.25a28.46,28.46,0,0,0,3.21,2.3c2.16,1.16,4.07.43,6.31,1A9.49,9.49,0,0,1,108.79,87c1.12,1.32,5.95,3,5.95,3A14.42,14.42,0,0,0,112,88.31C110.08,87.36,107.68,82.86,106.42,82Z"></path><path class="cls-3" d="M48.07,78.88a27.36,27.36,0,0,1-1.75-3.35,16.29,16.29,0,0,0-3.68,1.65c-2.08,1.29-2.41,3.31-4,5A9.6,9.6,0,0,1,33.73,85c-1.71.31-5.6,3.63-5.6,3.63A14.47,14.47,0,0,0,31,87.1c1.76-1.16,6.85-1,8.23-1.65,1.67-.8,2.54-2.73,4-3.82,1.6-1.22,3.72-1.08,5.62-1.47Z"></path><g class="cls-4"><path class="cls-5" d="m56.92 45.66a39 39 0 0 1 38 30.15 25.85 25.85 0 0 0-41.26-30c1.06-0.09 2.15-0.15 3.26-0.15z"></path></g><g class="cls-4"><path class="cls-5" d="m50.73 31.76c0.8 1.67 2.74 2.53 3.83 4 1.22 1.62 1.07 3.76 1.47 5.67a27.1 27.1 0 0 1 4.62-2.59 15.94 15.94 0 0 0-1.65-3.7c-1.3-2.08-3.31-2.41-5-4a9.53 9.53 0 0 1-2.83-4.94c-0.32-1.71-3.64-5.6-3.64-5.6a14.08 14.08 0 0 0 1.54 2.89c1.17 1.8 1 6.89 1.66 8.27z"></path></g><g class="cls-4"><path class="cls-5" d="M118.57,65c-2.11.12-6.43-2.57-7.95-2.69-1.85-.14-3.57,1.1-5.36,1.32-2,.26-3.79-.94-5.63-1.55q.09,1.1.09,2.22a28.58,28.58,0,0,1-.18,3.07,16.08,16.08,0,0,0,4,.41c2.45-.08,3.74-1.66,5.94-2.33a9.44,9.44,0,0,1,5.69,0c1.64.58,6.66-.35,6.66-.35A14,14,0,0,0,118.57,65Z"></path></g><g class="cls-4"><path class="cls-5" d="M71.18,30.92c.25,2-1,3.79-1.56,5.63.73,0,1.47-.09,2.22-.09a28.14,28.14,0,0,1,3.07.17,16,16,0,0,0,.42-4c-.08-2.45-1.67-3.74-2.34-5.93A9.55,9.55,0,0,1,73,21c.58-1.63-.35-6.66-.35-6.66a14.75,14.75,0,0,0-.12,3.27c.12,2.11-2.57,6.43-2.69,8C69.71,27.41,71,29.13,71.18,30.92Z"></path></g><g class="cls-4"><path class="cls-5" d="M88.35,41.89a16.71,16.71,0,0,0,2.37-3.27c1.15-2.16.42-4.07.94-6.31a9.56,9.56,0,0,1,2.86-4.92c1.33-1.12,3-5.94,3-5.94a14.08,14.08,0,0,0-1.74,2.77c-1,1.88-5.44,4.29-6.3,5.54-1.05,1.53-.84,3.64-1.54,5.31-.78,1.86-2.7,2.8-4.16,4.09A27.75,27.75,0,0,1,88.35,41.89Z"></path></g><g class="cls-4"><path class="cls-5" d="M97.37,53.15a16.49,16.49,0,0,0,3.68-1.65c2.08-1.29,2.4-3.31,4-5A9.56,9.56,0,0,1,110,43.68c1.71-.31,5.59-3.63,5.59-3.63a14.28,14.28,0,0,0-2.89,1.53c-1.77,1.16-6.86,1-8.23,1.65-1.67.8-2.54,2.73-4,3.82-1.62,1.23-3.76,1.08-5.66,1.47A28.25,28.25,0,0,1,97.37,53.15Z"></path></g></g></g></svg>